<?xml version="1.0" encoding="utf-8"?>
<!-- Generator: Adobe Illustrator 24.1.1, SVG Export Plug-In . SVG Version: 6.00 Build 0)  -->
<svg version="1.1" id="Layer_1" xmlns="http://www.w3.org/2000/svg" xmlns:xlink="http://www.w3.org/1999/xlink" x="0px" y="0px"
	 viewBox="0 0 1155.1 209.7" style="enable-background:new 0 0 1155.1 209.7;" xml:space="preserve">
<style type="text/css">
	.st0{opacity:0.18;}
	.st1{fill:#B9BFC7;}
	.st2{fill:#D5D8E0;}
	.st3{fill:#4C4C4D;}
	.st4{fill:#868D95;}
	.st5{fill:#D5D9E0;}
	.st6{fill:#F6F9FC;}
	.st7{fill:#FFFFFF;}
	.st8{fill:#878E96;}
	.st9{fill:#D6DDEB;}
	.st10{fill:#868E96;}
	.st11{fill:#6F7375;}
	.st12{fill:none;stroke:#6F7375;stroke-miterlimit:10;}
	.st13{fill:none;stroke:#6F7375;stroke-miterlimit:10;stroke-dasharray:4.84,4.84;}
	.st14{fill:none;stroke:#6F7375;stroke-miterlimit:10;stroke-dasharray:4.96,4.96;}
	.st15{fill:none;stroke:#6F7375;stroke-miterlimit:10;stroke-dasharray:4.91,4.91;}
</style>
<g class="st0">
	<path class="st1" d="M284.6,113.9c0.8,0.7,1.4,1.5,1.9,2.4c2.1,3.5,3.4,7.4,3.9,11.5c0.5,2.8,0.9,5.7,1,8.6
		c0.4,7.2-0.9,14.4-3.6,21.1c-1.6,3.7-3.7,7.2-6.4,10.2c-4.3,4.8-9.8,8.4-15.9,10.5c-4.6,1.5-9.2,2.7-14,3.4c-0.8,0-1.6,0.2-2.4,0.4
		c-2.1,0.2-4.2,0.2-6.3,0.2c-1.7,0-3.4-0.2-5-0.6c0-0.2,0-0.4,0.1-0.6c1.3-4.9,3.3-9.7,5.8-14.1c0.9-1.4,1.7-2.9,2.4-4.5
		c0.2-0.1,0.3-0.3,0.4-0.5c1.8-2.7,3.5-5.5,5.3-8.2c2.8-4,5.7-8,8.7-11.8c0.8-0.9,1.4-1.9,2.2-2.9c-0.7-0.3-1.3,0.1-1.8-0.3
		c1-0.1,2.1,0.1,2.9-1c1.4-1.9,2.9-3.7,4.4-5.5c0.4-0.5,1-0.8,1-1.6c0.4,0,0.6-0.3,0.8-0.6c1.8-2.1,3.7-4.1,5.5-6.2
		C278.5,120.3,281.5,117,284.6,113.9z"/>
	<path class="st2" d="M250.9,77c3.9,0.6,7.8,1.6,11.5,3c2.3,0.8,3.9,3.1,3.9,5.5c0,1.9,0.6,3.7,0.8,5.6c-0.7,0.5-0.5,1.2-0.5,1.9
		c0.1,1.6-0.3,3.2-1.1,4.5c-2,3.3-4.3,6.4-6.5,9.6c-0.3,0.5-0.5,1.1-0.4,1.7c0.2,1.8,0.5,3.5,0.5,5.3c0.2,2.2,0.2,4.5,0,6.7
		c-0.2,1.4-0.1,2.9-1,4c-1.6,2.1-3.4,4-5,6c-1.6,1.8-3,3.8-4.3,5.8c-0.4,0.4-0.7,1-0.7,1.6h-3.7c0.1-0.2,0.2-0.3,0.3-0.4
		c2.4-2.4,3.6-5.2,2.7-8.7c-0.4-1.8-0.6-3.7-0.8-5.6c0.7-0.1,1.3-0.3,1.9-0.6c2.4-0.6,4.7-1.7,6.7-3.3c1.1-0.8,1.9-2.1,2-3.4
		c0-2-0.2-4-0.6-5.9c-1.7,2.1-3.4,4.1-5,6.1c-1.5,1.8-3.5,2.3-5.7,2.6c-0.8,0.1-1.6,0.2-2.3,0.3c-1.5,0.1-3,0.4-4.5,0.7
		c-2.7,0-5.4,0.7-8.1,0.8c-0.5,0-0.4,0.3-0.2,0.6l2.1,4.1c0.2,0.3,0.4,0.4,0.7,0.3c1.9-0.3,3.9-0.4,5.8-0.6c0.1,1.1,0.2,2.1,0.3,3.1
		c0.1,1.8,0.4,3.6,0.9,5.3c0.7,1.8,1.9,3.4,3.3,4.6c-2.4,0.1-4.9,0.1-7.4,0.2c-0.6,0-1.2,0.4-1.9,0l-1.6-0.8c-0.7-2.4-1.4-4.8-2-7.2
		c-0.6-1.8-1-3.7-1.2-5.6c0.4-0.1,0.9,0.2,0.9-0.5s-0.6-0.3-0.9-0.4c-0.1,0-0.2,0-0.4,0c-0.1-0.7-0.3-1.3-0.4-2s-0.4-0.8-1-0.8
		c-1.4,0.2-2.9,0.3-4.4,0.5c-0.7,0.1-1.4-0.1-2,0.4c-0.7-0.5-1.5,0.1-2.2,0c-0.3-0.6-0.5-1.3-0.6-2l-0.2-3.4
		c0.1-0.2,0.3-0.2,0.4-0.3c2.6-0.9,5.1-1.8,7.7-2.7c0.6-0.2,0.7-0.4,0.6-1c-0.3-2.3-0.6-4.6-0.8-7c-0.1-0.9,0.2-1.9-0.5-2.7v-0.2
		h0.1l0,0l-0.1,0.1c-0.1,0-0.2,0-0.3,0.1c-1.8,1.4-3.6,2.9-5.4,4.3c-1.3,1.1-2.7,2.1-4.1,3l-3.7-13.6c1.6-2.3,3.2-4.5,4.8-6.8
		c1.1-1.6,2.4-3.1,3.7-4.6c0.6-0.7,1.4-1.2,2.3-1.5c2.4-0.7,4.4-2.3,6.6-3.4c1.8-0.9,3.4-2.2,5.4-2.8c0.6,1.6,1.5,3.1,2.7,4.3
		c0.4,0.5,1.1,0.6,1.6,0.3c2.6-1.5,4.9-3.7,6.6-6.2c1.4,0,2.8,0.4,4,1.1c0,1-0.3,1.9-0.9,2.7c-1.9,2.9-4.6,5-7.2,7.2
		c-0.2,0.2-0.6,0.3-0.4,0.7s0.5,0,0.7-0.2c2.1-1.7,4.1-3.6,5.9-5.7C249.6,80.3,250.8,78.9,250.9,77z M239.9,85.8
		c0.2-0.1,0.6-0.2,0.4-0.6c-0.4-0.8-0.8-1.6-1.3-2.5c-0.4,0.7-0.7,1.3-1.1,1.8s-0.3,0.8,0.3,1.1c0,0.5,0,1,0,1.5
		c-0.2,3.5-0.3,7-0.2,10.4c0.1,3.7,0.2,7.4,0.4,11.2c0,0.5,0.1,0.7,0.7,0.5c1.5-0.7,3.1-1.3,4.6-1.9c0.4-0.2,0.4-0.4,0.3-0.7
		c-0.3-2-0.7-3.9-1-5.9C242.3,95.6,241,90.7,239.9,85.8L239.9,85.8z"/>
	<path class="st3" d="M233.1,137.5l1.6,0.8c-1.1,0.3-2.2,0.4-3.3,0.4c-3.8,0.3-7.5,0.6-11.3,0.9c-3.1,0.2-6.2,0.4-9.3,0.6
		c-0.7,0-1,0.3-0.7,1c0.9,2.3,1.8,4.6,2.6,6.9c1.3,3.4,2.4,6.8,3.2,10.3c0.4,1.6,0.6,3.3,0.9,4.9c0,0.6,0,1.2,0.2,1.8
		c0.1,3,0.3,6,0.4,9c-0.1,3.3-0.2,6.5-0.3,9.8c0,1.1-0.1,2.3-0.1,3.5c0,0.9-0.3,1.5-1.3,1.6c-0.3,0.1-0.5,0.2-0.7,0.3l-7,2.1
		c-0.1,0-0.2,0-0.2,0.2l0,0c-0.8,0.1-1.6,0.3-2.4,0.6c-0.7,0.2-1,0.1-1.1-0.6c-0.6-2.5-1.2-5-1.9-7.5c0-0.3-0.1-0.7-0.4-0.9
		c0-0.3,0-0.7-0.1-1c-1.5-5.7-2.9-11.5-4.3-17.3c-1.1-4.2-2.1-8.4-3.2-12.6c-1-3.9-1.9-7.7-2.9-11.6c-0.7-3-1.5-5.9-2.2-8.9
		c-0.6-1.9,0.5-3.9,2.3-4.6l6-2.5h-1.3c-4.6,0-9.2,0-13.9,0c-0.8,0-1.1-0.2-0.9-1h37.2c0.1,0,0.1,0,0.2,0c0.5,0.1,0.5-0.1,0.4-0.6
		c-0.3-1-0.6-2.1-0.8-3.1l-6.6-24.2c0.5-0.2,0.6,0.2,0.7,0.5c1.3,4.5,2.5,9,3.7,13.6c0.2,1.1,0.5,2.1,0.9,3.1c0.1,1,0.4,2,0.8,3
		c0.2,1.4,0.6,2.7,1.1,4c0.1,0.7,0.3,1.4,0.6,2c0,0.6,0.2,1.1,0.4,1.7c0.2,0.3,0.4,0.2,0.7,0.2h8.9c0.1,0,0.2,0,0.4,0
		c0.3,0.1,0.9-0.3,0.9,0.4s-0.6,0.4-0.9,0.5h-24.7c2.7,0.9,5,2.2,7.4,3.3c0.9,0.5,1.8,0.9,2.8,1.1c0.2,0.1,0.4,0.3,0.6,0.4
		c3.8,1.8,7.5,3.6,11.3,5.3C229.2,135.8,231.2,136.6,233.1,137.5z"/>
	<path class="st4" d="M211.9,95.9l6.6,24.2c0.3,1,0.5,2.1,0.8,3.1c0.1,0.4,0.1,0.6-0.4,0.6c-0.1,0-0.1,0-0.2,0h-37.2
		c-2.6-9-5.1-18.1-7.7-27.1c-0.2-0.6-0.2-0.8,0.5-0.8c12.4,0,24.8,0,37.2,0C211.7,95.9,211.8,95.9,211.9,95.9z M197.1,110.5
		c0-1.5-1.2-2.7-2.8-2.7c-0.8,0-1.5,0.6-1.6,1.5c0,0.1,0,0.2,0,0.3c0,1.5,1.2,2.7,2.7,2.7c0.9,0,1.6-0.7,1.6-1.6
		C197.1,110.6,197.1,110.6,197.1,110.5z"/>
	<path class="st4" d="M194.3,152.3c1.1,4.2,2.2,8.4,3.2,12.6c1.4,5.8,2.9,11.5,4.3,17.3c0.1,0.3,0.1,0.7,0.1,1
		c-1.3,2.3-2.8,4.5-4.5,6.6c-2.9,3.6-6,7-9.3,10.2c-0.5,0.5-1.1,0.8-1.8,0.7c-0.8-0.1-1.5,0-2.3,0c-2.9,0-5.8,0-8.7,0
		c-0.3,0-0.7,0.1-0.9-0.2c3.3-8,6.5-16,9.8-23.9c2.7-6.6,5.4-13.1,8.1-19.7L194.3,152.3z"/>
	<path class="st1" d="M248,138.1c0.1-0.6,0.3-1.1,0.7-1.6c1.3-2,2.7-3.9,4.3-5.8c1.7-2,3.4-4,5-6c0.9-1.1,0.8-2.6,1-4
		c0.2-2.2,0.2-4.5,0-6.7c0-1.8-0.3-3.5-0.5-5.3c-0.1-0.6,0-1.2,0.4-1.7c2.3-3.1,4.6-6.2,6.5-9.6c0.8-1.4,1.2-2.9,1.1-4.5
		c0-0.6-0.1-1.4,0.5-1.9c0.2,3.2,0.5,6.4,0.7,9.5c0.1,1.3,0.1,2.6,0.2,3.9c0,0.3-0.1,0.7,0.2,1c0,1.1,0.1,2.1,0.1,3.2
		c0.3,3.2,0.5,6.4,0.5,9.6c0.1,4,0.5,8.1,0.4,12.1c0,0.8-0.6,1.1-1,1.6c-1.5,1.8-3,3.6-4.4,5.5c-0.7,1-1.8,0.9-2.9,1
		C256.6,138.4,252.3,138,248,138.1z"/>
	<path class="st2" d="M242.8,182c2.1,0,4.2,0,6.3-0.2c0,7.6,0,15.2,0,22.8c0,0.7,0.2,0.9,0.9,0.9c7.5,0,15.1,0,22.6,0
		c1-0.1,2,0.5,2.4,1.4c0.4,1.1-0.1,2.4-1.3,2.9c-0.2,0.1-0.3,0.1-0.5,0.1h-0.5c-17.6,0-35.1,0-52.6,0c-1.2,0-2.3-0.9-2.3-2.2
		c0-0.4,0.1-0.9,0.3-1.2c0.5-0.7,1.3-1.1,2.2-1c6.1,0,12.2,0,18.3,0c1.1,0,2.3,0,3.4,0c0.6,0,0.8-0.2,0.8-0.8
		C242.8,197.2,242.8,189.6,242.8,182z"/>
	<path class="st5" d="M217.3,174.1c-0.1-3-0.2-6-0.4-9c-0.1-0.6-0.2-1.2-0.2-1.8c0.6-0.1,1.2-0.1,1.8-0.2c2.4-0.1,4.8-0.1,7.1-0.1
		c4.1-0.1,8.2-0.2,12.4-0.2c2.7,0.1,5.4-0.1,8.1-0.6c-0.7,1.5-1.5,3-2.4,4.5c-2.5,4.5-4.5,9.2-5.8,14.1c0,0.2-0.1,0.4-0.1,0.6
		c-2.3-0.1-4.5-0.5-6.8-1.1c-4.3-0.9-8.3-2.6-12-5C218.5,175,217.9,174.6,217.3,174.1z"/>
	<path class="st1" d="M246.3,75.8c-1.7,2.6-3.9,4.7-6.6,6.2c-0.5,0.4-1.2,0.2-1.6-0.3c-1.2-1.2-2.1-2.7-2.7-4.3
		c-0.1-0.2-0.1-0.5-0.2-0.7c-0.1-0.4-0.2-0.6-0.7-0.4c-0.8,0.2-1.6,0-2.2-0.5c-2.3-1.6-4.4-3.5-6.1-5.7c-1.3-1.3-2.2-2.9-2.6-4.7
		c1.1-0.5,2.1-1.1,3-1.8c2.5-2.1,5.8-2.8,8.9-1.9c1.7,0.6,3.3,1.6,4.6,2.8c0.9,1.4,1.1,3,1.8,4.5C243,71.5,244.6,73.8,246.3,75.8z"
		/>
	<path class="st4" d="M269.3,130.4c0.1-4.1-0.3-8.1-0.4-12.2c0-3.2-0.3-6.4-0.5-9.6c-0.1-1.1-0.1-2.1-0.1-3.2
		c3.2,0.3,6.4,1.1,9.3,2.4c2.6,1.3,4.9,3.1,6.7,5.3c0.2,0.2,0.3,0.4,0.4,0.7c-3.1,3.2-6.1,6.4-9,9.8c-1.8,2.1-3.6,4.2-5.5,6.2
		C269.9,130.1,269.7,130.4,269.3,130.4z"/>
	<path class="st4" d="M240,64.6c-1.3-1.3-2.8-2.2-4.5-2.8c-3.1-0.9-6.5-0.2-8.9,1.9c-0.9,0.7-1.9,1.3-3,1.8c-3,0.9-4.5-0.8-4.4-3.9
		c0.1-2.9,1.3-5.7,3.4-7.7c1.4,1.6,2.6,1.9,4.6,1c0.8-0.3,1.4-0.8,2.2-1.1c3.3-1.6,6.2-0.8,8.1,2.3C238.9,58.7,239.8,61.6,240,64.6z
		"/>
	<path class="st3" d="M174.6,200.4c0.3,0.3,0.6,0.2,0.9,0.2c2.9,0,5.8,0,8.7,0c-0.4,1.4-0.7,2.7-1,4.1c-0.1,0.6-0.4,0.6-0.9,0.6
		h-13.6c-0.2,0-0.5,0.1-0.6-0.1s0.1-0.4,0.2-0.6C169.9,202.6,172.1,201.1,174.6,200.4z"/>
	<path class="st3" d="M207.9,191.4l7-2.1c0.4,0.9,1.1,1.8,1,2.7s-1.3,1.3-2.1,1.9c-3,2.4-6,4.7-9,7c-0.2,0.2-0.4,0.3-0.7,0.3
		c-0.1-1.9,0.2-3.9,1-5.7c0.7-1.4,1.5-2.8,2.6-4l0,0L207.9,191.4z"/>
	<path class="st1" d="M250.9,77c-0.1,1.9-1.3,3.3-2.4,4.7c-1.8,2.1-3.8,4-5.9,5.7c-0.2,0.2-0.4,0.6-0.7,0.2s0.2-0.5,0.4-0.7
		c2.6-2.2,5.3-4.3,7.2-7.2c0.6-0.8,0.9-1.7,0.9-2.7L250.9,77z"/>
	<path class="st4" d="M246.1,162.2c-2.7,0.4-5.4,0.6-8.1,0.6c-4.1,0-8.2,0.1-12.4,0.2c-2.4,0.1-4.8,0.1-7.1,0.1
		c-0.6,0-1.2,0.1-1.8,0.2c-0.3-1.6-0.5-3.3-0.9-4.9c-0.9-3.5-1.9-7-3.2-10.3c-0.8-2.3-1.7-4.6-2.6-6.9c-0.3-0.8,0-1,0.7-1
		c3.1-0.2,6.2-0.4,9.3-0.6c3.8-0.3,7.5-0.6,11.3-0.9c1.1,0,2.2-0.1,3.3-0.4c0.6,0.4,1.2,0,1.9,0c2.4-0.1,4.9-0.1,7.4-0.2h4
		c4.4-0.1,8.7,0.3,13.1,0.4c0.5,0.4,1.1,0,1.8,0.3c-0.7,1-1.4,2-2.2,2.9c-3,3.8-5.9,7.8-8.7,11.8c-1.9,2.7-3.6,5.5-5.3,8.2
		C246.4,161.9,246.4,162.1,246.1,162.2z"/>
	<path class="st4" d="M233.1,137.5c-1.9-0.9-3.9-1.8-5.8-2.7c-3.8-1.8-7.5-3.6-11.3-5.3c-0.2-0.1-0.4-0.3-0.6-0.4
		c0.2-0.3,0.4-0.7,0.7-1c0.9-1.1,1.9-2.3,2.8-3.4H230c0.2,1.9,0.6,3.8,1.2,5.6C231.7,132.8,232.4,135.1,233.1,137.5z"/>
	<path class="st4" d="M244.3,138.1h-0.4c-1.4-1.3-2.6-2.8-3.3-4.6c-0.5-1.7-0.8-3.5-0.9-5.3c-0.1-1.1-0.2-2.1-0.3-3.1
		c-0.1-1.7-0.2-3.4-0.4-5.1c1.5-0.4,3-0.6,4.5-0.7c0.8-0.1,1.6-0.2,2.3-0.3c0.2,1.5,0.5,3,0.7,4.5c0.2,1.9,0.4,3.7,0.8,5.6
		c0.9,3.5-0.2,6.3-2.7,8.7C244.5,137.8,244.4,138,244.3,138.1z"/>
	<path class="st4" d="M239.9,85.8c1.1,4.9,2.4,9.8,3.2,14.8c0.3,2,0.6,3.9,1,5.9c0.1,0.3,0,0.6-0.3,0.7c-1.6,0.6-3.1,1.3-4.6,1.9
		c-0.6,0.3-0.7,0-0.7-0.5c-0.2-3.7-0.3-7.4-0.4-11.2c-0.1-3.5,0-7,0.2-10.4c0-0.5,0-1,0-1.5C238.8,85.4,239.4,85.1,239.9,85.8z"/>
	<path class="st1" d="M246.5,123.4c-0.2-1.5-0.4-3-0.7-4.5c2.2-0.3,4.2-0.8,5.7-2.6c1.7-2,3.3-4,5-6.1c0.4,2,0.6,3.9,0.6,5.9
		c-0.1,1.4-0.9,2.7-2,3.4c-2,1.5-4.3,2.6-6.7,3.3C247.8,123.1,247.2,123.3,246.5,123.4z"/>
	<path class="st1" d="M239,119.9c0.2,1.7,0.3,3.4,0.4,5.1c-1.9,0.2-3.9,0.4-5.8,0.6c-0.4,0-0.6,0-0.7-0.3l-2.1-4.1
		c-0.1-0.3-0.3-0.6,0.2-0.6C233.6,120.6,236.3,119.9,239,119.9z"/>
	<path class="st1" d="M226.3,102.9c-1.8,2.6-3.8,5.1-6.1,7.3c-0.9,1.1-1.9,2.1-2.9,3c-0.4-1-0.7-2.1-0.9-3.1c1.5-0.9,2.8-1.9,4.1-3
		c1.8-1.4,3.6-2.9,5.4-4.3c0.1-0.1,0.2-0.1,0.3-0.1l0,0L226.3,102.9z"/>
	<path class="st4" d="M229.6,123.8h-8.9c-0.2,0-0.5,0.1-0.7-0.2l1.8-1.7c0.6-0.5,1.4-0.3,2-0.4c1.4-0.2,2.9-0.3,4.4-0.5
		c0.6-0.1,0.9,0.2,1,0.8S229.5,123.1,229.6,123.8z"/>
	<path class="st4" d="M239.9,85.8c-0.5-0.7-1.1-0.4-1.7-0.2c-0.5-0.3-0.6-0.6-0.3-1.1s0.7-1.1,1.1-1.8c0.5,0.9,0.9,1.7,1.3,2.5
		C240.5,85.6,240.1,85.6,239.9,85.8z"/>
	<path class="st6" d="M221.9,122l-1.9,1.6c-0.2-0.5-0.3-1.1-0.4-1.7C220.4,122,221.1,121.5,221.9,122z"/>
	<path class="st1" d="M218,116l0.9,0.5c0.1,1.2,0.1,2.3,0.2,3.4C218.6,118.7,218.2,117.4,218,116z"/>
	<path class="st1" d="M226.3,102.7L226.3,102.7L226.3,102.7L226.3,102.7L226.3,102.7z"/>
	<path class="st7" d="M207.9,191.4l-0.2,0.2C207.7,191.4,207.8,191.4,207.9,191.4z"/>
	<path class="st6" d="M197.1,110.5c0.1,0.9-0.5,1.6-1.3,1.7c-0.1,0-0.1,0-0.2,0c-1.5,0-2.7-1.2-2.7-2.7c-0.1-0.8,0.5-1.6,1.3-1.7
		c0.1,0,0.2,0,0.3,0C195.8,107.8,197.1,109,197.1,110.5z"/>
</g>
<g class="st0">
	<path class="st4" d="M425.7,137.4c-0.5-2-1.1-4-1.9-5.9c-0.8-2.2-1.6-4.5-2.4-6.7c-1-3.5-1.1-7.1-0.2-10.6c0.5-2.5,0.9-5.1,1.4-7.6
		c4.2-0.1,8.4,0.2,12.6,1c4.2,0.7,8,2.7,10.9,5.8c0.5,0.6,1.2,1,1.4,1.9c-1.4,1.3-2.8,2.8-4.1,4.2c-1.4,1.4-2.7,3-4,4.5
		c-3,3.3-5.9,6.6-8.7,10.1c-1.3,1.6-2.5,3.1-3.8,4.6C426.3,138.3,426.4,137.5,425.7,137.4z"/>
	<path class="st1" d="M447.4,115.3c0.4,0,0.5,0.4,0.7,0.6c2.1,3,3.6,6.4,4.4,10c1.3,5.2,1.8,10.6,1.6,15.9c-0.2,4.8-1.1,9.5-2.7,14
		c-1,3-2.4,5.8-4.1,8.4c-4,5.9-9.7,10.5-16.3,13.1c-4.7,1.8-9.5,3.1-14.5,3.8c-1.2,0.2-2.4,0.4-3.7,0.6c-2.1,0.2-4.1,0.6-6.2,0.2
		c-1.6,0-3.2-0.2-4.8-0.4c0-0.2,0-0.5,0.1-0.7c1.1-4,2.6-7.8,4.5-11.5c1.3-2.6,2.9-5.1,4.2-7.7c0.2-0.2,0.4-0.4,0.5-0.6
		c3.1-5,6.5-9.8,10-14.5c1.9-2.5,3.8-5.1,5.8-7.6c1.3-1.6,2.5-3.1,3.8-4.6c2.8-3.5,5.8-6.8,8.7-10.1c1.3-1.5,2.6-3,4-4.5
		C444.5,118.1,445.9,116.6,447.4,115.3z"/>
	<path class="st5" d="M371.4,118.3c2-0.3,4.1-0.6,6.1-0.9c0.6-0.1,0.9-0.7,1.1-1.2c1-1.9,1.8-3.8,2.5-5.9c1.7-4.5,3.4-8.9,4.8-13.5
		c0.4-1.7,0.9-3.3,1.5-4.9c0.9-1.9,2.6-3.2,4.7-3.7c1.3-0.3,2.5-0.8,3.6-1.4c0.4,0.1,0.6-0.1,0.9-0.3l3.5-1.3
		c-0.1,0.2-0.1,0.3-0.2,0.5c-0.8,2-0.1,3.4,2.1,3.8c0.5,0.1,0.9,0.2,1.4,0.3c1.6,0.4,3.4-0.2,4.5-1.4c0.8-1,1.4-2.1,1.8-3.3
		c0.8,0.2,1.6,0.3,2.4,0.5c3.4,0.8,6.8,1.3,10.2,2.3c1.8,0.5,3.2,1.4,3.5,3.4c0.1,1,0.5,1.9,0.7,2.8c0.3,0.7,0.3,1.4,0.1,2.2
		c-0.2,1.7-1.3,3-2.2,4.4c-0.2,0.3-0.5,0.7-0.7,1c-0.3,0.2-0.5,0.4-0.7,0.7c-2.1,2.4-4.3,4.6-6.8,6.5c-3.3,2.5-6.3,5.5-8.8,8.9
		c-1.4,2.3-3.8,3.8-6.4,4.3c-2.2,0.4-4.5,0.6-6.7,0.8c-1.8,0.2-3.7,0.3-5.5,0.5c-1.2,0-2.4,0.2-3.5,0.5c-0.3-0.3-0.6-0.2-0.9-0.2
		c-0.7,0.1-1.4,0.2-2.1,0.2c-0.8,0.1-1.6,0.2-2.4,0.2c-2.1,0.2-4.1,0.5-6.2,0.5c0.1-1.1,0.1-2.2,0-3.2c0-1.8,0-1.8-1.9-1.9
		L371.4,118.3z M392.3,114.8c2.3-0.7,4.6-1.3,7-1.9c0.5-0.1,0.9-0.4,1.2-0.9c0.7-1,1.5-2,2.2-3.1c0.1-0.2,0.5-0.5,0.3-0.7
		s-0.6-0.1-0.9-0.1c-0.2,0.1-0.4,0.1-0.6,0.3c-1.8,1-3.8,1.5-5.9,1.5c-2.2-0.2-4.2-1.6-5.1-3.6c-0.2-0.5-0.4-0.4-0.6-0.1
		c-0.7,0.7-1.4,1.3-2.1,2.1c-2.2,2.2-3.8,4.9-4.6,7.9c-0.1,0.6,0,0.8,0.5,0.7c1.2-0.3,2.4-0.6,3.6-0.9
		C389.1,115.6,390.7,115.1,392.3,114.8z"/>
	<path class="st3" d="M356.6,157.1c-0.4-2.8-1-5.6-1.2-8.4c-0.4-4-0.7-8.1,0.2-12.1c0.1-0.3,0.1-0.5,0.2-0.8
		c0.9-2.7,2.5-3.9,5.4-3.9c3.7,0,7.4,0.3,11.1,1.1l4.9,1c5.2,1.3,10.4,2.6,15.5,4.1l1.1,0.4c-1.1,0.5-2.2,0.8-3.4,1.1
		c-6,1.5-12,3.5-17.8,5.9c-0.6,0.2-0.8,0.5-0.6,1.2c0.7,3.1,1.4,6.3,2.1,9.5c0.5,2.2,0.9,4.4,1.4,6.5c0.2,1.9,0.7,3.7,0.8,5.6
		c0.3,5.1,0.3,10.3-0.2,15.4c-0.1,1.5-0.3,3-0.4,4.5c0,0.7-0.3,1-1,1.1c-0.5,0.1-0.9,0.1-1.4,0.3c-0.7,0.1-1.4,0.2-2.1,0.3
		c-1.7,0.3-3.4,0.4-5.1,0.9c-0.4,0.1-0.7-0.2-0.8-0.6c0,0,0,0,0,0c-0.4-1.5-0.9-2.9-1.4-4.3c-0.1-0.4-0.1-0.8-0.2-1.1
		c-1.2-3.6-2.2-7.3-3.2-11C359,168.2,357.7,162.7,356.6,157.1z"/>
	<path class="st4" d="M336.4,126.3c-2.6-8.9-5.1-17.9-7.7-26.9c0.3,0,0.5,0,0.7,0h36.3c2.4,8.8,4.8,17.5,7.2,26.2
		c0.2,0.6-0.1,0.7-0.6,0.7L336.4,126.3z M348.8,110.8c-0.8-0.1-1.6,0.6-1.6,1.4c0,0.1,0,0.2,0,0.4c0.2,1.2,1,2.1,2.1,2.5
		c0.8,0.3,1.7-0.2,2-1c0-0.1,0-0.1,0.1-0.2c0.2-1.5-0.8-2.8-2.3-3C349,110.8,348.9,110.8,348.8,110.8z"/>
	<path class="st1" d="M393.8,138.5l-1.1-0.4c1.5-3,2.3-6.3,2.3-9.6c-0.1-1.9-0.3-3.7-0.7-5.6c2.3-0.2,4.5-0.4,6.7-0.8
		c2.6-0.5,4.9-2.1,6.4-4.3c2.5-3.3,5.5-6.3,8.8-8.9c2.5-1.9,4.8-4.1,6.8-6.5c0.2-0.2,0.5-0.5,0.7-0.7c-0.3,1.6-0.9,3.2-1.2,4.8
		c-0.5,2.5-0.9,5.1-1.4,7.6c-0.8,3.5-0.8,7.2,0.2,10.6c0.7,2.3,1.6,4.5,2.4,6.7c0.8,1.9,1.5,3.8,1.9,5.9c-0.7,0-1.5-0.1-2.2-0.1
		c-4.5,0-8.9,0.3-13.4,0.4C404.7,137.9,399.2,138.1,393.8,138.5z"/>
	<path class="st4" d="M356.6,157.1c1.1,5.5,2.4,11,3.9,16.5c1,3.7,2,7.4,3.2,11c0.1,0.4,0.2,0.7,0.2,1.1c-3.1,3.8-6.5,7.4-10,10.9
		c-1.6,1.6-3.3,3.1-4.9,4.6c-0.4,0.4-0.9,0.6-1.4,0.6c-1.1,0-2.3,0-3.5,0h-8.4l-0.9-0.1c0.3-0.7,0.6-1.4,0.9-2
		c6.6-14.2,13.3-28.3,20.7-42.1L356.6,157.1z"/>
	<path class="st4" d="M426.6,96.4c0.2-0.7,0.2-1.5-0.1-2.2c-0.2-1-0.6-1.9-0.7-2.8c-0.3-2-1.7-2.9-3.5-3.4c-3.3-1-6.8-1.5-10.2-2.3
		c-0.8-0.2-1.6-0.3-2.4-0.5c-0.3-1.1-0.4-2.1-0.4-3.2c0-1.2,0.3-2.3,0.3-3.5c0-2.2-0.6-4.4-1.8-6.3c-2.1-3.4-4.8-6.4-7.8-9
		c-0.5-0.4-0.9-1.4-1.6-1c-0.6,0.3-0.9,1.1-1.2,1.8c-0.1,0.2-0.1,0.3-0.1,0.5c-0.6,3.1-0.7,6.3-0.5,9.4c0.1,1.3,0.4,2.6,0.9,3.9
		c0.2,0.8,0.9,1.3,1.7,1.4c0.7,0,1.4,0.1,2.1,0.1c0.5,0,0.7,0.2,0.6,0.7c-0.1,1.9-0.7,3.8-1.8,5.4l-3.5,1.3
		c-0.3,0.1-0.6,0.3-0.9,0.3c-0.4-1.4-0.5-2.8-0.3-4.2c0.5-5,0.2-10.1-0.9-15c-0.6-2.8-0.9-5.5,0.1-8.3c0.3-0.8,0.7-1.7,1.2-2.5
		c0.3-0.5,0.8-0.8,1.4-0.9c3.3-1,6.8-1.1,10.1-0.1c5.2,1.4,8.2,4.9,9.2,10.1c0.3,1.4,0.5,2.9,0.5,4.3c0,2.5,1,4.9,2.8,6.5
		c1.5,1.5,3.2,2.8,5,3.9c2.2,1.4,4.2,3,4.9,5.8c0.2,1.3,0.1,2.7-0.3,3.9l-0.9,4.2C428.3,95.8,427.8,96.3,426.6,96.4z"/>
	<path class="st4" d="M376.3,168.2c-0.1-1.9-0.6-3.7-0.8-5.6c1.5,0,3.1,0.1,4.6,0.1c6.8,0,13.6-0.1,20.3-0.4c3.4-0.2,6.7-0.5,10-0.9
		c-1.4,2.6-2.9,5.1-4.2,7.7c-1.9,3.7-3.4,7.5-4.5,11.5c0,0.2-0.1,0.5-0.1,0.7c-6.5-0.7-12.7-2.3-18.2-6c-2.6-1.7-4.8-3.8-6.6-6.4
		C376.7,168.8,376.5,168.5,376.3,168.2z"/>
	<path class="st5" d="M406.5,181.8c2.1,0.4,4.2,0,6.2-0.2c0,7.4,0,14.9,0,22.3c0,0.7,0.2,0.9,0.9,0.9c7.4,0,14.8,0,22.3,0
		c0.9,0,1.8,0.6,2.1,1.4c0.4,1.1-0.1,2.3-1.1,2.7c-0.4,0.1-0.7,0.2-1.1,0.1h-51.5c-1.3,0-2.1-0.6-2.1-1.8c-0.2-1.1,0.4-2.1,1.5-2.4
		c0.1,0,0.3,0,0.4,0c0.3,0,0.5,0,0.8,0c6.9,0,13.8,0,20.7,0c0.6,0,0.9-0.1,0.9-0.8C406.5,196.6,406.5,189.2,406.5,181.8z"/>
	<path class="st4" d="M394.3,122.9c0.4,1.8,0.7,3.7,0.7,5.6c0,3.3-0.7,6.6-2.3,9.6c-5.1-1.5-10.3-2.8-15.5-4.1
		c1.2-2.1,2.6-4.1,4.2-6c0.3-0.3,0.5-0.6,0.7-0.9c0.4,0,0.8,0,1.1,0s0.8,0.2,0.8-0.4s-0.3-0.6-0.7-0.6l2-2.1
		c1.2-0.3,2.3-0.5,3.5-0.5C390.6,123.2,392.5,123.1,394.3,122.9z"/>
	<path class="st8" d="M340.9,205c-0.5,1.4-0.9,2.9-1.4,4.3c-0.1,0.4-0.3,0.6-0.7,0.6h-14c0.2-0.6,0.6-1.1,1.1-1.4
		c2.1-1.9,4.8-3.2,7.7-3.5c0.3,0,0.5-0.1,0.8-0.2C336.6,204.7,338.7,204.8,340.9,205z"/>
	<path class="st8" d="M372.7,193.6l0.6,4.3c0.1,0.4-0.1,0.9-0.5,1c0,0,0,0,0,0c-4.1,1.9-8.1,3.8-12.2,5.6c-0.1,0-0.3,0.1-0.4,0.1
		c0.1-1,0.5-2,1-2.9c1.2-2.2,3-4,5.1-5.3c0.3-0.2,0.6-0.4,0.9-0.6l1-0.5C369.6,194.6,371.2,194,372.7,193.6z"/>
	<path class="st4" d="M383.3,126.1c0.4,0,0.8,0.1,0.7,0.6s-0.5,0.4-0.8,0.4s-0.8,0-1.1,0c-14.9,0-29.8,0-44.8,0
		c-0.7,0-1.2-0.1-1-0.9h35.8c0.5,0,0.8,0,0.6-0.7c-2.4-8.7-4.8-17.5-7.2-26.2c0.6-0.2,0.7,0.2,0.8,0.7c1.3,4.9,2.7,9.7,4,14.6
		c0.3,1.2,0.7,2.5,1.1,3.7c0.1,0.4,0.3,0.8,0.4,1.3c0.4,1.7,0.9,3.5,1.4,5.2c0,0.2,0,0.5,0.2,0.7c-0.1,0.7,0.3,0.9,1,0.9
		c2.7,0,5.3,0,8,0C382.7,126.3,383,126.3,383.3,126.1z"/>
	<path class="st1" d="M372.7,193.6c-1.6,0.4-3.1,0.9-4.5,1.7l-1,0.5c-0.4-1.7-0.8-3.4-1.1-5.1c1.7-0.5,3.4-0.6,5.1-0.9
		c0.7-0.1,1.4-0.2,2.1-0.3C373.1,190.8,372.9,192.2,372.7,193.6z"/>
	<path class="st1" d="M340.9,205c-2.2-0.2-4.4-0.3-6.5-0.2c0.4-1,0.9-2,1.3-3h8.4C343.1,202.9,342,204,340.9,205z"/>
	<path class="st4" d="M410.5,161.4c-3.3,0.4-6.7,0.6-10,0.9c-6.8,0.4-13.6,0.5-20.3,0.4c-1.5,0-3.1-0.1-4.6-0.1
		c-0.4-2.2-0.9-4.4-1.4-6.5c-0.7-3.2-1.3-6.3-2.1-9.5c-0.2-0.7,0-0.9,0.6-1.2c5.8-2.4,11.7-4.3,17.8-5.9c1.2-0.2,2.3-0.6,3.4-1.1
		c5.4-0.4,10.9-0.6,16.3-0.7c4.5-0.1,8.9-0.4,13.4-0.4c0.7,0,1.5,0.1,2.2,0.1s0.7,0.9,1.1,1.3c-1.9,2.5-3.9,5-5.8,7.6
		c-3.5,4.7-6.9,9.5-10,14.5C410.8,161.1,410.6,161.2,410.5,161.4z"/>
	<path class="st1" d="M400.2,85.3c1-1.6,1.6-3.5,1.8-5.4c0.1-0.5-0.1-0.7-0.6-0.7c-0.7,0-1.4-0.1-2.1-0.1c-0.8-0.1-1.5-0.6-1.7-1.4
		c-0.5-1.2-0.8-2.5-0.9-3.9c-0.3-3.1-0.1-6.3,0.5-9.4c0-0.2,0.1-0.3,0.1-0.5c0.3-0.7,0.6-1.5,1.2-1.8c0.8-0.3,1.1,0.6,1.6,1
		c3.1,2.6,5.7,5.6,7.8,9c1.2,1.9,1.9,4,1.8,6.3c-0.1,1.2-0.3,2.3-0.3,3.5c0,1.1,0.1,2.2,0.4,3.2c-0.4,1.2-1,2.3-1.8,3.3
		c-1.2,1.2-2.9,1.8-4.5,1.4c-0.5-0.1-0.9-0.2-1.4-0.3c-2.1-0.4-2.9-1.8-2.1-3.8C400,85.7,400.1,85.5,400.2,85.3z"/>
	<path class="st1" d="M387.4,115.8c-1.2,0.3-2.4,0.6-3.6,0.9c-0.6,0.1-0.7-0.1-0.5-0.7c0.8-3,2.4-5.7,4.6-7.9
		c0.7-0.7,1.4-1.4,2.1-2.1c0.3-0.3,0.4-0.4,0.6,0.1c0.9,2.1,2.8,3.5,5.1,3.6c2.1,0,4.1-0.5,5.9-1.5c0.2-0.1,0.4-0.2,0.6-0.3
		c0.3,0,0.7-0.2,0.9,0.1s-0.2,0.5-0.3,0.7c-0.7,1-1.5,2-2.2,3.1c-0.3,0.4-0.7,0.7-1.2,0.9c-2.3,0.6-4.6,1.3-7,1.9
		c-0.8-2.4-1.3-4.9-1.8-7.4C389.5,110.3,388.5,113.1,387.4,115.8z"/>
	<path class="st1" d="M382.2,124c-1.1,0.9-2.5,1.4-4,1.4c-1.6,0.1-3.3,0-4.9,0c-0.1-0.2-0.2-0.4-0.2-0.7l0.5-0.1
		c2.1,0,4.1-0.3,6.2-0.5C380.7,124.2,381.5,124.1,382.2,124z"/>
	<path class="st1" d="M373.7,124.7l-0.5,0.1c-0.6-1.7-1-3.4-1.4-5.2c1.9,0,1.9,0,1.9,1.9C373.8,122.5,373.8,123.6,373.7,124.7z"/>
	<path class="st9" d="M348.8,110.8c1.5,0,2.6,1.3,2.6,2.7c0,0.1,0,0.2,0,0.3c-0.2,0.9-1,1.4-1.9,1.3c-0.1,0-0.1,0-0.2-0.1
		c-1.1-0.3-1.9-1.3-2.1-2.5c-0.1-0.8,0.4-1.6,1.3-1.7C348.6,110.8,348.7,110.8,348.8,110.8z"/>
</g>
<g class="st0">
	<path class="st5" d="M53.8,79.3c3.2,7.7,5.4,15.9,6.5,24.2c0.9,6,1.3,12.1,1.2,18.2c0,0.6-0.1,1.2-0.4,1.7
		c-0.9,0.6-1.8,1.1-2.9,1.3c-3,1.1-6.2,1.8-9.4,2.1c-0.5,0-1.1,0.2-1.5-0.2h-4.6c-1.7,0.8-3.5,0.5-5.2,0.3c-3.2-0.4-6.4-1.1-9.6-1.6
		c-0.6-2.5-0.5-5-0.9-7.6c-0.5-3.6-0.8-7.2-1.3-10.8c-1.2-8.2,0-15.8,4.8-22.7c0.9-1.3,1.3-2.8,2.6-3.8c0.6-0.4,1.3-0.6,2-0.5
		c5.6,0.1,11.2-0.2,16.7-1C52.6,78.9,53.3,78.7,53.8,79.3z"/>
	<path class="st4" d="M53.8,79.3c-6.8,1-13.7,1.4-20.5,1.2c-0.2-5.6-1-11.1-2.3-16.5c-0.4-0.7-1.1-1-1.9-0.9c-1.7,0.3-3.5,0-5-0.8
		c-1.1-0.5-2-1.4-2.5-2.6c0.5-5.5,1-10.9,2-16.3c0.4-1.6,1.4-3,2.8-3.9c2.2,0.9,4.3,0.3,6.5-0.3c1.9-0.5,3.9,0.6,5.8,1.3
		c1.1,1.3,2.5,2.3,4.1,3c2.1,0.8,3.4,0.3,4.2-1.8c0.4-1,0.6-2.1,0.5-3.1c-0.1-0.7,0-1.4,0.4-2c1.3-0.6,2.5,0.3,3.7,0.6
		c0.8,0.5,2,0.4,2.5,1.4c2.4,1.1,4.3,3.1,5.3,5.6c1.3,3.2,2.8,6.2,4.3,9.3c0.2,0.5,0.7,0.9,0.2,1.5c-0.6,1-1.7,1.6-2.9,1.5
		c-0.6-0.4-0.7-1-0.9-1.6c-1-2.3-2.3-4.4-3.8-6.5c1.8,2.7,3.7,5.4,3.1,9C59,59,58.6,60.6,57,61.5c-1.4,1.1-2.3,2.7-2.4,4.5
		c-0.3,4.2-1.3,8.3-0.5,12.5C54.2,78.8,54.1,79.1,53.8,79.3z"/>
	<path class="st1" d="M28,125.3c0.6-0.7,1.3-0.3,2-0.2c4.3,0.6,8.5,1.8,12.9,1.5c-0.5,4.3-0.8,8.6-1.4,12.9
		c-2.2,17.4-6.8,34.4-10,51.7c-0.6,3.5-1.4,6.9-2.1,10.4c-1.5,0.6-3.1,0.1-4.5-1.4c0.4-7.9,0.1-15.8,0.4-23.6
		c0.3-9.6,1-19.2,4.1-28.5c0.4-1.3,0.1-2.9,0-4.3C28.8,137.6,28.4,131.4,28,125.3z"/>
	<path class="st1" d="M47.4,126.6c4.5-0.5,8.9-1.5,13.2-3.2c0.2,0,0.4,0,0.6,0c0.4,5.7,0.8,11.3,1.3,17c0.3,4.6,0.3,9.2,0.2,13.8
		s-0.1,9.4-0.2,14.1c-0.1,8.5-0.1,17-0.3,25.6c-0.1,3-0.1,6-0.2,9c-1.2,1.1-3,1.1-4.2,0c-1.2-7.2-2.3-14.4-3.5-21.6
		c-1.3-7.2-2-14.4-2.1-21.7c0-1.3,0.1-2.6,0.3-3.8c0.7-4.1-0.2-7.9-1.2-11.9C49.9,138.2,48.7,132.3,47.4,126.6z"/>
	<path class="st4" d="M51.6,37.6c-1.1-0.5-2.3-0.8-3.5-0.9c-0.7,0.1-1.5,0-2.2-0.3c-0.5-0.2-1-0.5-1-1.1s0.5-0.9,1-1.1
		c1.6-0.5,3-1.4,4.3-2.5c2.1-2,2.6-4.5,2.8-7.1c0.2-1.6,0-3.3,0-5c0.1-0.7-0.4-1.3-1-1.4c0,0-0.1,0-0.1,0c-0.8-0.1-1.7-0.4-2.5-0.5
		c-1.8-0.1-2.6,0.3-3.3,1.9c-0.6,1.2-1.7,2.1-3,2.4c-1.3,0.4-2.3,1-2.5,2.5c0,0.8-0.6,0.9-1.2,0.4c-0.5-0.4-0.8-1.1-1.6-0.7
		c-0.7,0.4-1.1,1.2-1,2c0,1.5,0.3,2.9,2,3.5c0.8,0.3,1.2,1.1,1,1.9c-0.1,0.8-0.3,1.7-0.3,2.5c-0.2,1.1,0.3,2.2,1.3,2.7
		c1.9,1,2,2.4,0.3,3.7c-0.6,0.7-1.6,0.9-2.5,0.5c-1.4-0.4-2.8-0.8-4.2-1.1c-0.8-0.3-1.7-0.3-2.5,0.1c-2,1.4-3.8,1-5.6-0.2
		c-3.2-2.1-3.4-8.2-0.5-10.5c2.1-1.7,2.6-4.1,2.7-6.6c0-2.7,0.4-5.5,1.1-8.1c1.8-5.4,5.5-8,11.7-8.6c2.9-0.3,5.8,0.1,7.9,2.6
		C49.7,8.8,50.4,9.1,51,9c1.3,0.1,2.6,0.6,3.7,1.4c2.8,1.9,3.1,4,0.5,6.3c-0.8,0.6-1.1,1.6-0.7,2.5c0.8,2.2,0.5,4.6,0.8,6.8
		c0.1,1.9,0.9,3.7,2.1,5.1c0.2,0.2,0.4,0.5,0.6,0.8c1,1.4,1.5,2.9,0.6,4.5c-0.8,1.5-2.5,2.2-4.1,1.9C53.5,38.1,52.6,37.5,51.6,37.6z
		"/>
	<path class="st1" d="M21.6,59.8c2.2,2.8,5.1,3.4,8.4,2.8c1.6-0.3,0.5,1,0.9,1.4c-1.1,2-1.4,4.3-1.8,6.4c-2.1,9.9-4.8,19.7-7.9,29.3
		c-1.3,3.8-2.2,7.6-2.7,11.6c-0.1,1.6,0.2,3.2,0.9,4.7c0.4,0.9,1.2,2.1,0.1,2.8c-1.2,0.8-1.8-0.7-2.5-1.4c-0.9-1.1-2.1-1.4-3.7-0.6
		c-2.8,1.5-6,2.1-9.2,1.9c-0.5,0-1.1,0.1-1.2-0.5s0.4-0.7,0.7-1c1.6-1.4,3.2-2.8,4.9-4.2c4-3.3,5.3-7.8,6.1-12.7
		c2-12.5,3.5-25,6.3-37.4C21.3,61.8,21.4,60.8,21.6,59.8z"/>
	<path class="st1" d="M57,61.4c0.9-1.3,1.6-2.7,2-4.2c0.4-0.6,1.2-1,1.9-0.9c1.1-0.2,2-1,3-1.4c1.5,2.7,3.1,5.4,4.6,8.1
		c0.6,1.1,1.1,1.3,2.4,0.7c5.5-2.5,11.4-4.2,17.2-6.5c1-0.4,2.1-0.9,3.1-1.3c1.7-0.6,3-1.9,3.8-3.5c1.5-2.9,3-5.7,6.4-6.8
		c0.7-0.4,1.5-0.5,2.2-0.4c-0.2,0.9-0.9,1.3-1.5,1.8s-1.5,1-2.2,1.6s-1.3,1.1-1,1.9c0.2,0.6,1,0.2,1.6,0.2c1.7,0,2.3,0.5,2.1,2.5
		c-0.2,1.3,0.2,2.5-0.8,3.7c-1.1,1.4-2.6,2.4-4.3,2.9c-0.5,0.2-1,0.3-1.6,0.2c-2.1-0.8-3.7,0.5-5.3,1.4c-6.6,3.7-13,7.5-19.7,10.8
		c-2.7,1.3-3.2,1.3-5.4-0.8C62.4,68.4,59.5,65,57,61.4z"/>
	<path class="st10" d="M24.8,200.2c1.5,0.6,2.8,1.5,4.5,1.4c2.2,2.2,4.6,4.1,7.3,5.7c0.5,0.3,1.1,0.6,1,1.3s-0.9,0.9-1.4,1.1
		c-0.6,0.2-1.2,0.2-1.7,0.1c-1.3-0.2-2.5-0.6-3.6-1.2c-1.7-0.9-3.5-1.6-5.4-1.9c-1.1-0.2-2.4-0.5-2.6-2
		C22.6,203,23.4,201.3,24.8,200.2z"/>
	<path class="st10" d="M57.7,202.9c1.3,0.5,2.8,0.5,4.2,0c0.4,0,0.8,0.1,1.2,0.2c2.1,1,4.4,1.7,6.7,2.2c0.8,0.2,1.5,0.5,2.3,0.8
		c0.5,0.1,0.8,0.6,0.8,1.1c0,0.6-0.4,1-1,1.1c-0.9,0.2-1.9,0.3-2.9,0.3c-3.1-0.3-6.3-0.3-9.4,0c-1.1,0.2-2.3,0.1-2.8-1.3
		C56.2,205.8,56.6,204.1,57.7,202.9z"/>
	<path class="st1" d="M38.7,40.8c1.2,0,2.2-0.6,3-1.4c0.7-1,0.6-2-0.5-2.3c-1.9-0.5-2-1.8-2-3.3c0.1-0.7,0.2-1.5,0.3-2.2
		c0.2-1,0.4-1.7-1.2-1.9c-1.3-0.2-1.7-1.7-1.9-2.9c-0.3-1.2,0.1-2.5,1.1-3.3c0.4-0.4,1-0.4,1.4,0c0.1,0.1,0.1,0.1,0.1,0.2l1.1,1.5
		c0.1-0.5,0.1-1,0.1-1.5c-0.1-1,0.6-1.9,1.6-2c0,0,0,0,0,0c2-0.5,3.5-1.2,4.2-3.4c0.5-1.6,2.2-1.4,3.6-1.2c1,0.3,2.1,0.5,3.1,0.6
		c0.7,0,0.6,0.4,0.6,0.9c0.2,2.8,0,5.7-0.4,8.5c-0.7,3.8-3.3,6-6.8,7.3c-0.5,0.2-1.2,0-1.2,0.8s0.8,0.8,1.3,1s1.1,0.4,1.7,0.5
		c-0.1,1.8,0.1,3.6-0.7,5.3c-1,2.3-2.3,3-4.7,2C41.1,43.4,39.7,42.3,38.7,40.8z"/>
	<path class="st11" d="M60.9,56.3L59,57.2c0.5-3.9-2-6.7-3.6-9.8C58,49.8,59.9,52.9,60.9,56.3z"/>
</g>
<g class="st0">
	<path class="st12" d="M70.5,4.5c0,0,0.9,0,2.5,0"/>
	<path class="st13" d="M77.8,4.8c22.8,1.7,90.6,12.4,86.1,80.6"/>
	<path class="st12" d="M163.7,87.8c-0.1,0.8-0.2,1.7-0.3,2.5c0,0,0.4-0.8,1.1-2.2"/>
	<path class="st14" d="M167,83.7C179.4,62.4,224.5,0,297.5,59.5"/>
	<path class="st12" d="M299.4,61.1c0.6,0.5,1.3,1.1,1.9,1.6c0,0,0.4-0.8,1.2-2.2"/>
	<path class="st15" d="M305.1,56.4c7.1-10.7,23.2-31.6,43.3-33.5"/>
	<path class="st12" d="M350.9,22.8c0.8,0,1.7,0,2.5,0.1"/>
</g>
<g class="st0">
	<path class="st1" d="M858.2,113.9c-0.8,0.7-1.4,1.5-1.9,2.4c-2.1,3.5-3.4,7.4-3.9,11.5c-0.5,2.8-0.9,5.7-1,8.6
		c-0.4,7.2,0.9,14.4,3.6,21.1c1.6,3.7,3.7,7.2,6.4,10.2c4.3,4.8,9.8,8.4,15.9,10.5c4.6,1.5,9.2,2.7,14,3.4c0.8,0,1.6,0.2,2.4,0.4
		c2.1,0.2,4.2,0.2,6.3,0.1c1.7,0,3.4-0.2,5-0.6c0-0.2,0-0.4-0.1-0.6c-1.3-4.9-3.3-9.7-5.8-14.1c-0.9-1.4-1.7-2.9-2.4-4.5
		c-0.2-0.1-0.3-0.3-0.4-0.5c-1.8-2.7-3.5-5.5-5.3-8.2c-2.8-4-5.7-8-8.7-11.8c-0.8-0.9-1.4-1.9-2.2-2.9c0.7-0.3,1.3,0.1,1.8-0.3
		c-1-0.1-2.1,0.1-2.9-1c-1.4-1.9-2.9-3.7-4.4-5.5c-0.4-0.5-1-0.8-1-1.6c-0.4,0-0.6-0.3-0.8-0.6c-1.8-2.1-3.7-4.1-5.5-6.2
		C864.3,120.3,861.3,117,858.2,113.9z"/>
	<path class="st2" d="M891.9,77c-3.9,0.6-7.8,1.6-11.5,3c-2.3,0.8-3.9,3.1-3.9,5.5c0,1.9-0.6,3.7-0.8,5.6c0.7,0.5,0.5,1.2,0.5,1.9
		c-0.1,1.6,0.3,3.2,1.1,4.5c2,3.3,4.3,6.4,6.5,9.6c0.3,0.5,0.5,1.1,0.4,1.7c-0.2,1.8-0.5,3.5-0.5,5.3c-0.2,2.2-0.2,4.5,0,6.7
		c0.2,1.4,0.1,2.9,1,4c1.6,2.1,3.3,4,5,6c1.6,1.8,3,3.8,4.3,5.8c0.3,0.5,0.8,0.9,0.7,1.6h3.7c-0.1-0.1-0.2-0.3-0.3-0.4
		c-2.4-2.4-3.6-5.2-2.7-8.7c0.4-1.8,0.6-3.7,0.8-5.6c-0.7-0.1-1.3-0.3-1.9-0.6c-2.4-0.6-4.7-1.7-6.7-3.3c-1.1-0.8-1.9-2.1-2-3.4
		c0-2,0.2-4,0.6-5.9c1.7,2.1,3.4,4.1,5,6.1c1.5,1.8,3.5,2.3,5.7,2.6c0.8,0.1,1.5,0.2,2.3,0.3c1.5,0.1,3,0.4,4.5,0.7
		c2.7,0,5.3,0.7,8,0.8c0.5,0,0.3,0.3,0.2,0.6c-0.7,1.4-1.4,2.8-2.2,4.1c-0.2,0.3-0.3,0.4-0.7,0.3c-1.9-0.3-3.8-0.4-5.8-0.6
		c-0.1,1.1-0.2,2.1-0.3,3.1c-0.1,1.8-0.4,3.6-0.9,5.3c-0.7,1.8-1.9,3.4-3.3,4.6c2.5,0.1,4.9,0.1,7.4,0.2c0.6,0,1.2,0.4,1.9,0
		l1.6-0.8c0.7-2.4,1.4-4.8,2-7.2c0.6-1.8,1-3.7,1.2-5.6c-0.3-0.1-1,0.2-0.9-0.5s0.6-0.3,0.9-0.4c0.1,0,0.2,0,0.4,0
		c0.1-0.7,0.3-1.3,0.4-2s0.4-0.8,1-0.8c1.5,0.2,2.9,0.3,4.3,0.5c0.7,0.1,1.4-0.1,2,0.4c0.7-0.5,1.5,0.1,2.2,0c0.3-0.6,0.5-1.3,0.6-2
		l0.2-3.4c-0.1-0.2-0.3-0.2-0.4-0.3c-2.5-0.9-5.1-1.8-7.7-2.7c-0.5-0.2-0.7-0.4-0.6-1c0.3-2.3,0.7-4.6,0.8-7
		c0.1-0.9-0.2-1.9,0.5-2.7v-0.2h-0.1l0,0l0.1,0.1c0.1,0,0.2,0,0.3,0.1c1.8,1.4,3.6,2.9,5.4,4.3c1.3,1.1,2.7,2.1,4.1,3l3.7-13.6
		c-1.6-2.3-3.2-4.5-4.8-6.8c-1.1-1.6-2.4-3.1-3.7-4.6c-0.6-0.7-1.4-1.2-2.3-1.5c-2.4-0.7-4.4-2.3-6.6-3.4c-1.8-0.9-3.4-2.2-5.4-2.8
		c-0.6,1.6-1.5,3.1-2.7,4.3c-0.4,0.5-1.1,0.6-1.6,0.3c-2.6-1.5-4.9-3.7-6.6-6.2c-1.4,0-2.8,0.4-4,1.1c0,1,0.3,1.9,1,2.7
		c1.9,2.9,4.6,5,7.2,7.2c0.2,0.2,0.6,0.3,0.4,0.7s-0.5,0-0.7-0.2c-2.1-1.7-4.1-3.6-5.9-5.7C893.2,80.3,892,78.9,891.9,77z
		 M902.9,85.8c-0.2-0.1-0.7-0.2-0.4-0.6c0.4-0.8,0.8-1.6,1.3-2.5c0.4,0.7,0.7,1.3,1.1,1.8s0.3,0.8-0.3,1.1c0,0.5,0,1,0,1.5
		c0.2,3.5,0.3,7,0.2,10.4c-0.1,3.7-0.2,7.4-0.4,11.2c0,0.5-0.1,0.7-0.7,0.5c-1.5-0.7-3.1-1.3-4.7-1.9c-0.4-0.2-0.4-0.4-0.3-0.7
		c0.3-1.9,0.7-3.9,1-5.9C900.5,95.6,901.8,90.7,902.9,85.8L902.9,85.8z"/>
	<path class="st3" d="M909.7,137.5l-1.6,0.8c1.1,0.3,2.2,0.4,3.3,0.4c3.8,0.3,7.5,0.6,11.3,0.9c3.1,0.2,6.2,0.4,9.3,0.6
		c0.7,0,1,0.3,0.7,1c-0.9,2.3-1.8,4.6-2.6,6.9c-1.3,3.4-2.4,6.8-3.2,10.3c-0.3,1.6-0.6,3.3-0.8,4.9c0,0.6-0.1,1.2-0.2,1.8
		c-0.2,3-0.3,6-0.4,9c0.1,3.3,0.2,6.5,0.2,9.8c0,1.1,0.2,2.3,0.1,3.5c0,0.9,0.3,1.5,1.3,1.6c0.3,0.1,0.5,0.2,0.7,0.3l7,2.1
		c0.1,0,0.2,0,0.2,0.2l0,0c0.8,0.1,1.6,0.3,2.4,0.6c0.7,0.2,1,0.1,1.1-0.6c0.6-2.5,1.2-5,1.9-7.5c0-0.3,0.1-0.7,0.3-0.9
		c0-0.3,0-0.7,0.1-1c1.5-5.7,2.9-11.5,4.3-17.3c1.1-4.2,2.2-8.4,3.2-12.6c1-3.9,1.9-7.7,2.9-11.6c0.7-3,1.5-5.9,2.2-8.9
		c0.6-1.9-0.5-3.9-2.3-4.6l-6-2.5h1.3c4.6,0,9.2,0,13.9,0c0.8,0,1.1-0.2,0.9-1h-37.2c-0.1,0-0.1,0-0.2,0c-0.5,0.1-0.5-0.1-0.4-0.6
		c0.3-1,0.6-2.1,0.8-3.1l6.6-24.2c-0.5-0.2-0.6,0.2-0.7,0.5c-1.2,4.5-2.5,9-3.7,13.6c-0.2,1.1-0.5,2.1-0.9,3.1
		c-0.1,1-0.3,1.9-0.8,2.8c-0.2,1.4-0.6,2.7-1.1,4c-0.1,0.7-0.3,1.4-0.6,2c0,0.6-0.2,1.1-0.4,1.7c-0.2,0.3-0.4,0.2-0.7,0.2h-8.9
		c-0.1,0-0.2,0-0.4,0c-0.3,0.1-0.9-0.3-0.9,0.4s0.5,0.4,0.9,0.5h24.7c-2.7,0.9-5,2.2-7.4,3.3c-0.9,0.5-1.8,0.9-2.8,1.1
		c-0.2,0.1-0.4,0.3-0.6,0.4c-3.8,1.8-7.5,3.6-11.3,5.3C913.6,135.8,911.6,136.6,909.7,137.5z"/>
	<path class="st4" d="M930.9,95.9l-6.6,24.2c-0.3,1-0.5,2.1-0.8,3.1c-0.1,0.4-0.1,0.6,0.4,0.6c0.1,0,0.1,0,0.2,0h37.2
		c2.6-9,5.1-18.1,7.7-27.1c0.2-0.6,0.2-0.8-0.5-0.8c-12.4,0-24.8,0-37.2,0C931.1,95.9,931,95.9,930.9,95.9z M945.7,110.5
		c0-1.5,1.2-2.7,2.7-2.7c0.8,0,1.5,0.6,1.6,1.5c0,0.1,0,0.2,0,0.3c0,1.5-1.3,2.7-2.8,2.7c-0.9,0-1.6-0.7-1.6-1.6
		C945.7,110.6,945.7,110.6,945.7,110.5z"/>
	<path class="st4" d="M948.5,152.3c-1.1,4.2-2.2,8.4-3.2,12.6c-1.5,5.8-2.9,11.5-4.3,17.3c-0.1,0.3-0.1,0.7-0.1,1
		c1.3,2.3,2.8,4.5,4.5,6.6c2.9,3.6,6,7,9.3,10.2c0.5,0.5,1.1,0.8,1.8,0.7c0.8-0.1,1.5,0,2.3,0c2.9,0,5.8,0,8.7,0
		c0.3,0,0.7,0.1,0.9-0.2c-3.3-8-6.5-16-9.8-23.9c-2.7-6.6-5.4-13.1-8.1-19.7L948.5,152.3z"/>
	<path class="st1" d="M894.8,138.1c0-0.6-0.4-1.1-0.7-1.6c-1.3-2-2.8-3.9-4.3-5.8c-1.7-2-3.4-4-5-6c-0.9-1.1-0.8-2.6-1-4
		c-0.2-2.2-0.2-4.5,0-6.7c0-1.8,0.3-3.5,0.5-5.3c0.1-0.6,0-1.2-0.4-1.7c-2.3-3.1-4.6-6.2-6.5-9.6c-0.8-1.4-1.2-2.9-1.1-4.5
		c0-0.6,0.1-1.4-0.5-1.9c-0.2,3.2-0.5,6.4-0.7,9.5c-0.1,1.3-0.1,2.6-0.2,3.9c0,0.3,0.1,0.7-0.2,1c0,1.1-0.1,2.1-0.1,3.2
		c-0.3,3.2-0.5,6.4-0.5,9.6c-0.1,4-0.5,8.1-0.4,12.1c0,0.8,0.6,1.1,1,1.6c1.5,1.8,3,3.6,4.4,5.5c0.7,1,1.8,0.9,2.9,1
		C886.1,138.4,890.5,138,894.8,138.1z"/>
	<path class="st2" d="M900,182c-2.1,0-4.2,0-6.3-0.2c0,7.6,0,15.2,0,22.8c0,0.7-0.2,0.9-0.9,0.9c-7.5,0-15.1,0-22.6,0
		c-1-0.1-1.9,0.5-2.3,1.4c-0.4,1.1,0.1,2.4,1.2,2.9c0.2,0.1,0.3,0.1,0.5,0.1h0.5c17.5,0,35.1,0,52.6,0c1.2,0,2.3-0.9,2.3-2.2
		c0-0.4-0.1-0.9-0.3-1.2c-0.5-0.7-1.3-1.1-2.2-1c-6.1,0-12.2,0-18.3,0c-1.1,0-2.3,0-3.4,0c-0.6,0-0.8-0.2-0.8-0.8
		C900,197.2,900,189.6,900,182z"/>
	<path class="st5" d="M925.5,174.1c0.1-3,0.2-6,0.4-9c0.1-0.6,0.2-1.2,0.2-1.8c-0.6-0.1-1.2-0.1-1.8-0.2c-2.4-0.1-4.8-0.1-7.1-0.1
		c-4.1-0.1-8.2-0.2-12.4-0.2c-2.7,0.1-5.4-0.1-8.1-0.6c0.7,1.5,1.5,3,2.4,4.5c2.5,4.5,4.5,9.2,5.8,14.1c0,0.2,0.1,0.4,0.1,0.6
		c2.3-0.1,4.5-0.5,6.8-1.1c4.3-0.9,8.3-2.6,12-5C924.3,175,924.9,174.6,925.5,174.1z"/>
	<path class="st1" d="M896.5,75.8c1.7,2.6,3.9,4.7,6.5,6.2c0.5,0.4,1.2,0.2,1.6-0.3c1.2-1.2,2.1-2.7,2.7-4.3l0.2-0.7
		c0.1-0.4,0.2-0.6,0.7-0.4c0.8,0.2,1.6,0,2.2-0.5c2.3-1.6,4.4-3.5,6.1-5.7c1.3-1.3,2.2-2.9,2.6-4.7c-1.1-0.5-2-1.1-3-1.8
		c-2.5-2.1-5.9-2.8-9-1.9c-1.7,0.6-3.2,1.6-4.5,2.8c-0.9,1.4-1.1,3-1.8,4.5C899.7,71.5,898.2,73.8,896.5,75.8z"/>
	<path class="st4" d="M873.5,130.4c-0.1-4.1,0.3-8.1,0.4-12.2c0-3.2,0.3-6.4,0.5-9.6c0.1-1.1,0.2-2.1,0.1-3.2
		c-3.2,0.3-6.4,1.1-9.3,2.4c-2.6,1.3-4.9,3.1-6.7,5.3c-0.2,0.2-0.3,0.4-0.4,0.7c3.1,3.2,6.2,6.4,9,9.8c1.8,2.1,3.7,4.2,5.5,6.2
		C872.9,130.1,873.1,130.4,873.5,130.4z"/>
	<path class="st4" d="M902.8,64.6c1.3-1.3,2.8-2.2,4.5-2.8c3.1-0.9,6.5-0.2,9,1.9c0.9,0.7,1.9,1.3,3,1.8c3,0.9,4.5-0.8,4.5-3.9
		c-0.1-2.9-1.3-5.7-3.4-7.7c-1.4,1.6-2.6,1.9-4.6,1c-0.8-0.3-1.5-0.8-2.2-1.1c-3.3-1.6-6.2-0.8-8.1,2.3
		C903.9,58.7,903,61.6,902.8,64.6z"/>
	<path class="st3" d="M968.2,200.4c-0.3,0.3-0.6,0.2-0.9,0.2c-2.9,0-5.8,0-8.7,0c0.3,1.4,0.7,2.7,1,4.1c0.1,0.6,0.4,0.6,0.9,0.6
		h13.6c0.2,0,0.5,0.1,0.6-0.1s-0.1-0.4-0.2-0.6C972.9,202.6,970.7,201.1,968.2,200.4z"/>
	<path class="st3" d="M934.9,191.4l-7-2.1c-0.4,0.9-1.1,1.8-1,2.7s1.3,1.3,2.1,1.9c3,2.4,6,4.7,9,7c0.2,0.2,0.4,0.3,0.7,0.3
		c0.1-1.9-0.2-3.9-1-5.7c-0.7-1.4-1.5-2.8-2.5-4l0,0L934.9,191.4z"/>
	<path class="st1" d="M891.9,77c0.1,1.9,1.3,3.3,2.4,4.7c1.8,2.1,3.8,4,5.9,5.7c0.2,0.2,0.4,0.6,0.7,0.2s-0.2-0.5-0.4-0.7
		c-2.6-2.2-5.3-4.3-7.2-7.2c-0.6-0.8-0.9-1.7-1-2.7L891.9,77z"/>
	<path class="st4" d="M896.7,162.2c2.7,0.4,5.4,0.6,8.1,0.6c4.1,0,8.2,0.1,12.4,0.2c2.4,0.1,4.8,0.1,7.1,0.1c0.6,0,1.2,0.1,1.8,0.2
		c0.3-1.6,0.5-3.3,0.8-4.9c0.9-3.5,1.9-7,3.2-10.3c0.8-2.3,1.7-4.6,2.6-6.9c0.3-0.8,0-1-0.7-1c-3.1-0.2-6.2-0.4-9.3-0.6
		c-3.8-0.3-7.5-0.6-11.3-0.9c-1.1,0-2.2-0.1-3.3-0.4c-0.6,0.4-1.2,0-1.9,0c-2.5-0.1-4.9-0.1-7.4-0.2h-4c-4.3-0.1-8.7,0.3-13,0.4
		c-0.5,0.4-1.1,0-1.8,0.3c0.7,1,1.4,2,2.2,2.9c3,3.8,6,7.8,8.7,11.8c1.9,2.7,3.5,5.5,5.3,8.2C896.4,161.9,896.4,162.1,896.7,162.2z"
		/>
	<path class="st4" d="M909.7,137.5c1.9-0.9,3.9-1.8,5.8-2.7c3.8-1.8,7.5-3.6,11.3-5.3c0.2-0.1,0.4-0.3,0.6-0.4
		c-0.2-0.3-0.4-0.7-0.7-1c-0.9-1.1-1.9-2.3-2.8-3.4h-11.1c-0.2,1.9-0.6,3.8-1.2,5.6C911,132.8,910.3,135.1,909.7,137.5z"/>
	<path class="st4" d="M898.5,138.1h0.3c1.4-1.3,2.6-2.8,3.3-4.6c0.5-1.7,0.8-3.5,0.9-5.3c0.1-1.1,0.2-2.1,0.3-3.1
		c0.1-1.7,0.2-3.4,0.4-5.1c-1.5-0.4-3-0.6-4.5-0.7c-0.8-0.1-1.6-0.2-2.3-0.3c-0.2,1.5-0.5,3-0.7,4.5c-0.2,1.9-0.4,3.7-0.8,5.6
		c-0.9,3.5,0.2,6.3,2.7,8.7C898.3,137.8,898.4,138,898.5,138.1z"/>
	<path class="st4" d="M902.9,85.8c-1.1,4.9-2.4,9.8-3.2,14.8c-0.3,2-0.6,3.9-1,5.9c-0.1,0.3,0,0.6,0.3,0.7c1.6,0.6,3.1,1.3,4.7,1.9
		c0.6,0.3,0.7,0,0.7-0.5c0.2-3.7,0.3-7.4,0.4-11.2c0.1-3.5,0-7-0.2-10.4c0-0.5,0-1,0-1.5C904,85.4,903.4,85.1,902.9,85.8z"/>
	<path class="st1" d="M896.3,123.4c0.2-1.5,0.5-3,0.7-4.5c-2.2-0.3-4.2-0.8-5.7-2.6c-1.7-2-3.3-4-5-6.1c-0.4,2-0.6,3.9-0.6,5.9
		c0.1,1.4,0.9,2.7,2,3.4c2,1.5,4.3,2.6,6.7,3.3C895,123.1,895.6,123.3,896.3,123.4z"/>
	<path class="st1" d="M903.8,119.9c-0.2,1.7-0.3,3.4-0.4,5.1c1.9,0.2,3.9,0.4,5.8,0.6c0.4,0,0.6,0,0.7-0.3c0.7-1.4,1.5-2.8,2.2-4.1
		c0.1-0.3,0.3-0.6-0.2-0.6C909.2,120.6,906.5,119.9,903.8,119.9z"/>
	<path class="st1" d="M916.5,102.9c1.8,2.6,3.8,5.1,6.1,7.3c0.9,1.1,1.9,2.1,2.9,3c0.4-1,0.7-2.1,0.9-3.1c-1.5-0.9-2.8-1.9-4.1-3
		c-1.8-1.4-3.6-2.9-5.4-4.3c-0.1-0.1-0.2-0.1-0.3-0.1l0,0L916.5,102.9z"/>
	<path class="st4" d="M913.2,123.8h8.9c0.2,0,0.5,0.1,0.7-0.2l-1.8-1.6c-0.6-0.5-1.3-0.3-2-0.4c-1.4-0.2-2.9-0.3-4.3-0.5
		c-0.6-0.1-0.9,0.2-1,0.8S913.3,123.1,913.2,123.8z"/>
	<path class="st4" d="M902.9,85.8c0.5-0.7,1.1-0.4,1.7-0.2c0.5-0.3,0.6-0.6,0.3-1.1s-0.7-1.1-1.1-1.8c-0.5,0.9-0.9,1.7-1.3,2.5
		C902.2,85.6,902.7,85.6,902.9,85.8z"/>
	<path class="st6" d="M920.9,122l1.8,1.7c0.2-0.5,0.4-1.1,0.4-1.7C922.4,122,921.7,121.5,920.9,122z"/>
	<path class="st1" d="M924.8,116l-0.9,0.5c-0.1,1.2-0.1,2.3-0.2,3.4C924.2,118.7,924.5,117.4,924.8,116z"/>
	<path class="st1" d="M916.5,102.7L916.5,102.7L916.5,102.7L916.5,102.7L916.5,102.7z"/>
	<path class="st7" d="M934.9,191.4l0.2,0.2C935.1,191.4,935,191.4,934.9,191.4z"/>
	<path class="st6" d="M945.7,110.5c-0.1,0.9,0.5,1.6,1.3,1.7c0.1,0,0.1,0,0.2,0c1.5,0,2.7-1.2,2.8-2.7c0.1-0.8-0.5-1.6-1.3-1.7
		c-0.1,0-0.2,0-0.3,0C946.9,107.8,945.7,109,945.7,110.5z"/>
</g>
<g class="st0">
	<path class="st4" d="M717.1,137.4c0.5-2,1.1-4,1.9-5.9c0.8-2.2,1.7-4.5,2.4-6.7c1-3.5,1.1-7.1,0.2-10.6c-0.5-2.5-0.9-5.1-1.3-7.6
		c-4.2-0.1-8.4,0.2-12.6,1c-4.2,0.7-8,2.7-10.9,5.7c-0.5,0.6-1.2,1-1.4,1.9c1.4,1.3,2.8,2.8,4.1,4.2c1.4,1.4,2.7,3,4,4.5
		c3,3.3,5.9,6.6,8.7,10.1c1.3,1.6,2.5,3.1,3.8,4.6C716.5,138.3,716.4,137.5,717.1,137.4z"/>
	<path class="st1" d="M695.4,115.3c-0.4,0-0.5,0.4-0.7,0.6c-2.1,3-3.6,6.4-4.4,10c-1.3,5.2-1.8,10.6-1.6,15.9
		c0.2,4.8,1.1,9.5,2.7,14c1,3,2.4,5.8,4.1,8.4c4,5.9,9.7,10.5,16.3,13.1c4.7,1.8,9.5,3.1,14.5,3.8c1.2,0.2,2.4,0.4,3.7,0.6
		c2.1,0.2,4.2,0.6,6.2,0.2c1.6,0,3.2-0.2,4.8-0.4c0-0.2,0-0.5-0.1-0.7c-1.1-4-2.6-7.8-4.5-11.5c-1.3-2.6-2.9-5.1-4.2-7.7
		c-0.2-0.2-0.3-0.4-0.5-0.6c-3.1-5-6.5-9.8-10-14.5c-1.9-2.5-3.8-5.1-5.8-7.6c-1.3-1.6-2.5-3.1-3.8-4.6c-2.8-3.5-5.7-6.8-8.7-10.1
		c-1.3-1.5-2.6-3-4-4.5C698.2,118.1,696.9,116.6,695.4,115.3z"/>
	<path class="st5" d="M771.3,118.3c-2-0.3-4.1-0.6-6.1-0.9c-0.6-0.1-0.9-0.7-1.2-1.2c-1-1.9-1.8-3.8-2.4-5.9
		c-1.7-4.5-3.4-8.9-4.8-13.5c-0.4-1.7-0.9-3.3-1.5-4.9c-0.9-1.9-2.6-3.2-4.7-3.7c-1.3-0.3-2.5-0.8-3.6-1.4c-0.3,0.1-0.6-0.1-0.9-0.3
		l-3.5-1.3c0.1,0.2,0.1,0.3,0.2,0.5c0.8,2,0.1,3.4-2.1,3.8c-0.5,0.1-0.9,0.2-1.4,0.3c-1.6,0.4-3.4-0.2-4.5-1.4
		c-0.8-1-1.5-2.1-1.8-3.3c-0.8,0.2-1.6,0.3-2.4,0.5c-3.4,0.8-6.8,1.3-10.2,2.3c-1.7,0.5-3.2,1.4-3.5,3.4c-0.1,1-0.5,1.9-0.7,2.8
		c-0.3,0.7-0.3,1.5-0.1,2.2c0.2,1.7,1.3,3,2.2,4.4c0.2,0.3,0.5,0.7,0.7,1c0.3,0.2,0.5,0.4,0.7,0.7c2.1,2.4,4.4,4.6,6.8,6.5
		c3.3,2.5,6.3,5.5,8.8,8.9c1.4,2.3,3.8,3.8,6.4,4.3c2.2,0.4,4.5,0.6,6.7,0.8c1.8,0.2,3.7,0.3,5.5,0.5c1.2,0,2.4,0.2,3.5,0.5
		c0.3-0.3,0.6-0.2,0.9-0.2c0.7,0.1,1.4,0.2,2.1,0.2c0.8,0.1,1.6,0.2,2.3,0.2c2.1,0.2,4.1,0.5,6.2,0.5c-0.1-1.1-0.1-2.2,0-3.2
		c0-1.8,0-1.8,1.9-1.9L771.3,118.3z M750.4,114.8c-2.3-0.7-4.6-1.3-7-1.9c-0.5-0.1-0.9-0.4-1.2-0.9c-0.7-1-1.5-2-2.2-3.1
		c-0.2-0.2-0.5-0.5-0.3-0.7s0.6-0.1,0.9-0.1c0.2,0.1,0.4,0.1,0.6,0.3c1.8,1,3.8,1.5,5.9,1.5c2.2-0.2,4.2-1.6,5.1-3.6
		c0.2-0.5,0.3-0.4,0.6-0.1c0.7,0.7,1.4,1.3,2.1,2.1c2.2,2.2,3.8,4.9,4.7,7.9c0.1,0.6,0,0.8-0.5,0.7c-1.2-0.3-2.4-0.6-3.6-0.9
		C753.7,115.6,752.1,115.1,750.4,114.8L750.4,114.8z"/>
	<path class="st3" d="M786.2,157.1c0.4-2.8,1-5.6,1.2-8.4c0.4-4,0.7-8.1-0.2-12.1c-0.1-0.3-0.1-0.5-0.2-0.8
		c-0.9-2.7-2.5-3.9-5.4-3.9c-3.7,0-7.4,0.3-11.1,1.1l-4.9,1c-5.2,1.3-10.3,2.6-15.5,4.1l-1.1,0.4c1.1,0.5,2.2,0.8,3.3,1.1
		c6.1,1.5,12,3.5,17.8,5.9c0.6,0.2,0.8,0.5,0.6,1.2c-0.7,3.1-1.4,6.3-2.1,9.5l-1.4,6.5c-0.2,1.9-0.7,3.7-0.8,5.6
		c-0.3,5.1-0.3,10.3,0.2,15.4c0.1,1.5,0.3,3,0.4,4.5c0,0.7,0.3,1,1,1.1c0.5,0.1,0.9,0.1,1.4,0.3c0.7,0.1,1.4,0.2,2.1,0.3
		c1.7,0.3,3.4,0.4,5.1,0.9c0.4,0.1,0.7-0.2,0.8-0.6c0,0,0,0,0,0c0.4-1.5,0.9-2.9,1.4-4.3c0.1-0.4,0.1-0.8,0.2-1.1
		c1.2-3.6,2.2-7.3,3.2-11C783.8,168.2,785.1,162.7,786.2,157.1z"/>
	<path class="st4" d="M806.4,126.3c2.6-8.9,5.1-17.9,7.7-26.9c-0.3,0-0.5,0-0.7,0h-36.3c-2.4,8.8-4.8,17.5-7.2,26.2
		c-0.2,0.6,0.1,0.7,0.6,0.7L806.4,126.3z M794,110.8c0.8-0.1,1.5,0.6,1.6,1.4c0,0.1,0,0.2,0,0.4c-0.2,1.2-1,2.1-2.1,2.5
		c-0.8,0.3-1.7-0.2-2-1c0-0.1,0-0.1-0.1-0.2c-0.2-1.5,0.8-2.8,2.3-3C793.8,110.8,793.9,110.8,794,110.8z"/>
	<path class="st1" d="M749,138.5l1.1-0.4c-1.5-3-2.3-6.3-2.3-9.6c0.1-1.9,0.3-3.7,0.7-5.6c-2.3-0.2-4.5-0.4-6.7-0.8
		c-2.6-0.5-4.9-2.1-6.4-4.3c-2.5-3.3-5.5-6.3-8.8-8.8c-2.5-1.9-4.8-4.1-6.8-6.5c-0.2-0.2-0.5-0.5-0.7-0.7c0.3,1.6,0.9,3.2,1.2,4.8
		c0.5,2.5,0.8,5.1,1.3,7.6c0.8,3.5,0.8,7.2-0.2,10.6c-0.7,2.3-1.6,4.5-2.4,6.7c-0.8,1.9-1.5,3.8-1.9,5.9c0.7,0,1.5-0.1,2.2-0.1
		c4.5,0,8.9,0.3,13.3,0.4C738.1,137.9,743.6,138.1,749,138.5z"/>
	<path class="st4" d="M786.2,157.1c-1.1,5.5-2.4,11-3.8,16.5c-1,3.7-2,7.4-3.2,11c-0.1,0.4-0.2,0.7-0.2,1.1c3.1,3.8,6.5,7.4,10,10.9
		c1.6,1.6,3.3,3.1,4.9,4.6c0.4,0.4,0.9,0.6,1.4,0.6c1.2,0,2.3,0,3.5,0h8.4l0.9-0.1c-0.3-0.7-0.6-1.4-0.9-2
		c-6.6-14.2-13.3-28.3-20.7-42.1C786.4,157.5,786.3,157.3,786.2,157.1z"/>
	<path class="st4" d="M716.2,96.4c-0.2-0.7-0.2-1.5,0.1-2.2c0.2-1,0.6-1.9,0.7-2.8c0.3-2,1.7-2.9,3.5-3.4c3.3-1,6.8-1.5,10.2-2.3
		c0.8-0.2,1.6-0.3,2.4-0.5c0.3-1.1,0.4-2.1,0.4-3.2c0-1.2-0.3-2.3-0.3-3.5c0-2.2,0.6-4.4,1.8-6.3c2.1-3.4,4.8-6.4,7.8-9
		c0.5-0.4,0.9-1.4,1.6-1s0.9,1.1,1.2,1.8c0.1,0.2,0.1,0.3,0.1,0.5c0.6,3.1,0.7,6.3,0.5,9.4c-0.1,1.3-0.4,2.6-0.9,3.9
		c-0.2,0.8-0.9,1.3-1.7,1.4c-0.7,0-1.4,0.1-2.1,0.1c-0.5,0-0.7,0.2-0.6,0.7c0.1,1.9,0.7,3.8,1.8,5.4l3.5,1.3
		c0.3,0.1,0.6,0.3,0.9,0.3c0.4-1.4,0.5-2.8,0.3-4.2c-0.5-5-0.2-10.1,0.8-15c0.6-2.8,0.9-5.5,0-8.3c-0.3-0.8-0.7-1.7-1.2-2.5
		c-0.3-0.5-0.8-0.8-1.4-0.9c-3.3-1-6.8-1.1-10.1-0.1c-5.2,1.4-8.2,4.9-9.2,10.1c-0.3,1.4-0.5,2.9-0.5,4.3c0,2.5-1,4.9-2.8,6.5
		c-1.5,1.5-3.2,2.8-5,3.9c-2.2,1.4-4.2,3-4.9,5.8c-0.2,1.3-0.1,2.7,0.3,3.9l0.9,4.2C714.5,95.8,715,96.3,716.2,96.4z"/>
	<path class="st4" d="M766.5,168.2c0.1-1.9,0.6-3.7,0.8-5.6c-1.5,0-3.1,0.1-4.6,0.1c-6.8,0-13.6-0.1-20.3-0.4
		c-3.4-0.2-6.7-0.5-10-0.9c1.4,2.6,2.9,5.1,4.2,7.7c1.9,3.7,3.4,7.5,4.4,11.5c0,0.2,0.1,0.5,0.1,0.7c6.5-0.7,12.7-2.3,18.2-6
		c2.6-1.7,4.8-3.8,6.6-6.4C766,168.8,766.3,168.5,766.5,168.2z"/>
	<path class="st5" d="M736.3,181.8c-2.1,0.4-4.2,0-6.2-0.2c0,7.4,0,14.9,0,22.3c0,0.7-0.2,0.9-0.9,0.9c-7.4,0-14.8,0-22.3,0
		c-0.9,0-1.8,0.6-2.1,1.4c-0.4,1.1,0.1,2.3,1.1,2.7c0.4,0.1,0.7,0.2,1.1,0.1h51.4c1.3,0,2.1-0.6,2.1-1.8c0.2-1.1-0.4-2.1-1.5-2.4
		c-0.1,0-0.3,0-0.4,0c-0.3,0-0.5,0-0.8,0c-6.9,0-13.8,0-20.7,0c-0.6,0-0.9-0.1-0.9-0.8C736.3,196.6,736.3,189.2,736.3,181.8z"/>
	<path class="st4" d="M748.5,122.9c-0.4,1.8-0.7,3.7-0.7,5.6c0,3.3,0.7,6.6,2.3,9.6c5.1-1.5,10.3-2.8,15.5-4.1
		c-1.2-2.1-2.6-4.1-4.2-6c-0.3-0.3-0.5-0.6-0.7-0.9c-0.4,0-0.8,0-1.2,0s-0.8,0.2-0.8-0.4s0.3-0.6,0.7-0.6l-2-2.1
		c-1.2-0.3-2.3-0.5-3.5-0.5C752.2,123.2,750.3,123.1,748.5,122.9z"/>
	<path class="st8" d="M801.9,205c0.5,1.4,0.9,2.9,1.3,4.3c0.1,0.4,0.3,0.6,0.7,0.6h14c-0.2-0.6-0.6-1.1-1.1-1.4
		c-2.1-1.9-4.8-3.2-7.7-3.5c-0.3,0-0.5-0.1-0.8-0.2C806.2,204.7,804,204.8,801.9,205z"/>
	<path class="st8" d="M770,193.6c-0.2,1.4-0.4,2.9-0.6,4.3c-0.1,0.4,0.1,0.9,0.5,1c0,0,0,0,0,0c4.1,1.9,8.1,3.8,12.2,5.6
		c0.1,0,0.3,0.1,0.4,0.1c-0.1-1-0.5-2-1-2.9c-1.2-2.2-3-4-5.1-5.3c-0.3-0.2-0.6-0.4-0.9-0.6l-1-0.5C773.2,194.6,771.6,194,770,193.6
		z"/>
	<path class="st4" d="M759.5,126.1c-0.4,0-0.8,0.1-0.7,0.6s0.5,0.4,0.8,0.4s0.8,0,1.2,0c14.9,0,29.8,0,44.8,0c0.7,0,1.2-0.1,1-0.9
		h-35.9c-0.5,0-0.8,0-0.6-0.7c2.4-8.7,4.8-17.5,7.2-26.2c-0.6-0.2-0.7,0.2-0.8,0.7c-1.3,4.9-2.7,9.7-4,14.6
		c-0.3,1.2-0.7,2.5-1.1,3.7l-0.4,1.3c-0.4,1.7-0.9,3.5-1.4,5.2c0,0.2,0,0.5-0.2,0.7c0.1,0.7-0.3,0.9-1,0.9c-2.7,0-5.3,0-8,0
		C760.1,126.3,759.8,126.2,759.5,126.1z"/>
	<path class="st1" d="M770,193.6c1.6,0.4,3.1,0.9,4.5,1.7l1,0.5c0.4-1.7,0.8-3.4,1.1-5.1c-1.7-0.5-3.4-0.6-5.1-0.9
		c-0.7-0.1-1.4-0.2-2.1-0.3C769.7,190.8,769.9,192.2,770,193.6z"/>
	<path class="st1" d="M801.9,205c2.2-0.2,4.4-0.3,6.5-0.2c-0.4-1-0.8-2-1.3-3h-8.4C799.7,202.9,800.8,204,801.9,205z"/>
	<path class="st4" d="M732.3,161.4c3.3,0.4,6.7,0.6,10,0.9c6.8,0.4,13.5,0.5,20.3,0.4c1.5,0,3.1-0.1,4.6-0.1l1.4-6.5
		c0.7-3.2,1.3-6.3,2.1-9.5c0.2-0.7,0-0.9-0.6-1.2c-5.8-2.4-11.7-4.3-17.8-5.9c-1.1-0.2-2.2-0.6-3.3-1.1c-5.4-0.4-10.9-0.6-16.3-0.7
		c-4.5-0.1-8.9-0.4-13.3-0.4c-0.7,0-1.5,0.1-2.2,0.1s-0.7,0.9-1.1,1.3c1.9,2.5,3.9,5,5.8,7.6c3.5,4.7,6.9,9.5,10,14.5
		C732,161.1,732.2,161.2,732.3,161.4z"/>
	<path class="st1" d="M742.6,85.3c-1-1.6-1.6-3.5-1.8-5.4c-0.1-0.5,0.1-0.7,0.6-0.7c0.7,0,1.4-0.1,2.1-0.1c0.8-0.1,1.5-0.6,1.7-1.4
		c0.5-1.2,0.8-2.5,0.9-3.9c0.3-3.1,0.1-6.3-0.5-9.4c0-0.2-0.1-0.3-0.1-0.5c-0.3-0.7-0.6-1.5-1.2-1.8s-1.1,0.6-1.6,1
		c-3.1,2.6-5.7,5.6-7.8,9c-1.2,1.9-1.9,4-1.8,6.3c0.1,1.2,0.3,2.3,0.3,3.5c0,1.1-0.1,2.2-0.4,3.2c0.4,1.2,1,2.3,1.8,3.3
		c1.2,1.2,2.9,1.8,4.5,1.4c0.5-0.1,0.9-0.2,1.4-0.3c2.1-0.4,2.9-1.8,2.1-3.8C742.7,85.7,742.7,85.5,742.6,85.3z"/>
	<path class="st1" d="M755.4,115.8c1.2,0.3,2.4,0.6,3.6,0.9c0.6,0.1,0.7-0.1,0.5-0.7c-0.8-3-2.4-5.7-4.7-7.9
		c-0.7-0.7-1.4-1.4-2.1-2.1c-0.3-0.3-0.4-0.4-0.6,0.1c-0.9,2.1-2.8,3.5-5.1,3.6c-2.1,0-4.1-0.5-5.9-1.5c-0.2-0.1-0.4-0.2-0.6-0.3
		c-0.3,0-0.7-0.2-0.9,0.1s0.2,0.5,0.3,0.7c0.7,1,1.5,2,2.2,3.1c0.3,0.4,0.7,0.7,1.2,0.9c2.3,0.6,4.6,1.3,7,1.9
		c0.8-2.4,1.3-4.9,1.8-7.4C753.3,110.3,754.3,113.1,755.4,115.8z"/>
	<path class="st1" d="M760.5,124c1.1,0.9,2.5,1.4,4,1.4c1.6,0.1,3.3,0,4.9,0c0.1-0.2,0.2-0.4,0.2-0.7l-0.5-0.1
		c-2.1,0-4.1-0.3-6.2-0.5C762.1,124.2,761.3,124.1,760.5,124z"/>
	<path class="st1" d="M769.1,124.7l0.5,0.1c0.6-1.7,1-3.4,1.4-5.2c-1.9,0-1.9,0-1.9,1.9C769,122.5,769,123.6,769.1,124.7z"/>
	<path class="st9" d="M794,110.8c-1.5,0-2.6,1.3-2.6,2.7c0,0.1,0,0.2,0,0.3c0.2,0.9,1,1.4,1.9,1.3c0.1,0,0.1,0,0.2-0.1
		c1.1-0.3,1.9-1.3,2.1-2.5c0.1-0.8-0.4-1.6-1.2-1.7C794.2,110.8,794.1,110.8,794,110.8z"/>
</g>
<g class="st0">
	<path class="st5" d="M1089,79.3c-3.3,7.7-5.4,15.9-6.5,24.2c-0.9,6-1.3,12.1-1.2,18.2c0,0.6,0.1,1.2,0.4,1.7
		c0.9,0.7,1.8,1.1,2.9,1.3c3,1.1,6.2,1.8,9.4,2.1c0.5,0,1.1,0.2,1.5-0.2h4.6c1.7,0.8,3.5,0.5,5.2,0.3c3.2-0.4,6.4-1.1,9.7-1.6
		c0.6-2.5,0.5-5,0.9-7.6c0.5-3.6,0.8-7.2,1.3-10.8c1.2-8.2,0-15.8-4.8-22.7c-0.9-1.3-1.3-2.8-2.6-3.8c-0.6-0.4-1.3-0.6-2-0.5
		c-5.6,0.1-11.2-0.2-16.8-1C1090.2,78.9,1089.5,78.7,1089,79.3z"/>
	<path class="st4" d="M1089,79.3c6.8,1,13.7,1.4,20.6,1.2c0.2-5.6,1-11.1,2.3-16.5c0.4-0.7,1.1-1,1.9-0.9c1.7,0.3,3.5,0,5-0.8
		c1.1-0.5,2-1.4,2.5-2.6c-0.4-5.5-1-10.9-2-16.3c-0.4-1.6-1.4-3-2.8-3.9c-2.2,0.9-4.3,0.3-6.5-0.3c-1.9-0.5-3.9,0.6-5.8,1.3
		c-1.1,1.3-2.5,2.3-4.1,3c-2.1,0.8-3.3,0.3-4.2-1.8c-0.4-1-0.6-2.1-0.5-3.1c0.1-0.7,0-1.4-0.4-2c-1.4-0.6-2.4,0.3-3.7,0.6
		c-0.8,0.5-2,0.4-2.5,1.4c-2.4,1.1-4.3,3.1-5.3,5.6c-1.3,3.2-2.8,6.2-4.3,9.3c-0.2,0.5-0.7,0.9-0.2,1.5c0.6,1,1.8,1.6,2.9,1.5
		c0.6-0.4,0.7-1,0.9-1.6c1-2.3,2.3-4.4,3.8-6.5c-1.8,2.7-3.7,5.4-3.1,9c0.4,1.6,0.8,3.2,2.3,4.1c1.4,1.1,2.2,2.7,2.4,4.5
		c0.3,4.2,1.3,8.3,0.5,12.5C1088.6,78.8,1088.7,79.1,1089,79.3z"/>
	<path class="st1" d="M1114.8,125.3c-0.6-0.7-1.3-0.3-1.9-0.2c-4.3,0.6-8.5,1.8-12.9,1.5c0.5,4.3,0.8,8.6,1.4,12.9
		c2.2,17.4,6.8,34.4,10,51.7c0.7,3.5,1.4,6.9,2.1,10.4c1.5,0.6,3.1,0.1,4.5-1.4c-0.4-7.9-0.1-15.8-0.4-23.6
		c-0.3-9.6-0.9-19.2-4.1-28.5c-0.4-1.3-0.1-2.9,0-4.3C1113.9,137.6,1114.4,131.4,1114.8,125.3z"/>
	<path class="st1" d="M1095.4,126.6c-4.5-0.5-8.9-1.5-13.2-3.2c-0.2,0-0.4,0-0.6,0c-0.4,5.7-0.8,11.3-1.3,17
		c-0.3,4.6-0.3,9.2-0.2,13.8s0.1,9.4,0.1,14.1c0.1,8.5,0.2,17,0.4,25.6c0.1,3,0.1,6,0.2,9c1.2,1.1,3,1.1,4.2,0
		c1.2-7.2,2.3-14.4,3.5-21.6c1.3-7.2,1.9-14.4,2-21.7c0-1.3-0.1-2.6-0.3-3.8c-0.7-4.1,0.2-7.9,1.2-11.9
		C1092.9,138.2,1094.1,132.3,1095.4,126.6z"/>
	<path class="st4" d="M1091.2,37.6c1.1-0.5,2.3-0.8,3.5-0.9c0.7,0.1,1.5,0,2.2-0.3c0.5-0.2,1-0.5,1-1.1s-0.5-0.9-1-1.1
		c-1.6-0.5-3-1.4-4.3-2.5c-2.1-2-2.6-4.5-2.8-7.1c-0.2-1.6,0-3.3,0-5c-0.1-0.7,0.4-1.3,1-1.4c0,0,0.1,0,0.1,0
		c0.8-0.1,1.7-0.4,2.5-0.5c1.8-0.1,2.6,0.3,3.3,1.9c0.6,1.2,1.7,2.1,3,2.4c1.3,0.4,2.3,1,2.4,2.5c0,0.8,0.6,0.9,1.2,0.4
		c0.5-0.4,0.8-1.1,1.6-0.7c0.7,0.4,1,1.2,0.9,1.9c0,1.5-0.3,2.9-2,3.5c-0.8,0.3-1.2,1.1-1,1.9c0.1,0.8,0.3,1.7,0.3,2.5
		c0.2,1.1-0.3,2.2-1.3,2.7c-1.9,1-2,2.4-0.3,3.7c0.6,0.7,1.6,0.9,2.5,0.5c1.4-0.4,2.8-0.8,4.2-1.1c0.8-0.3,1.7-0.3,2.5,0.1
		c2,1.4,3.8,1,5.6-0.2c3.2-2.1,3.4-8.2,0.5-10.5c-2.1-1.7-2.6-4.1-2.7-6.6c0-2.7-0.3-5.5-1.1-8.1c-1.8-5.4-5.5-8-11.7-8.6
		c-2.9-0.3-5.8,0.1-7.9,2.6c-0.4,0.4-1,0.6-1.6,0.6c-1.3,0.1-2.6,0.6-3.7,1.4c-2.8,1.9-3,4-0.5,6.3c0.8,0.6,1.1,1.6,0.7,2.5
		c-0.8,2.2-0.5,4.6-0.8,6.8c-0.1,1.9-0.9,3.7-2.1,5.1c-0.2,0.2-0.4,0.5-0.6,0.8c-1,1.4-1.5,2.9-0.6,4.5c0.8,1.5,2.5,2.2,4.1,1.9
		C1089.3,38.1,1090.2,37.5,1091.2,37.6z"/>
	<path class="st1" d="M1121.2,59.8c-2.2,2.8-5.1,3.4-8.4,2.8c-1.6-0.3-0.6,1-0.9,1.4c1.1,2,1.3,4.3,1.8,6.4
		c2.1,9.9,4.8,19.7,7.9,29.3c1.3,3.8,2.2,7.6,2.7,11.6c0.1,1.6-0.2,3.2-0.9,4.7c-0.4,0.9-1.2,2.1-0.1,2.8c1.2,0.8,1.8-0.7,2.4-1.4
		c0.9-1.1,2.1-1.4,3.7-0.6c2.8,1.5,6,2.1,9.2,1.9c0.4,0,1.1,0.1,1.2-0.5s-0.4-0.7-0.7-1c-1.6-1.4-3.2-2.8-4.9-4.2
		c-4-3.3-5.3-7.8-6.1-12.7c-2-12.5-3.5-25-6.3-37.4C1121.5,61.8,1121.3,60.8,1121.2,59.8z"/>
	<path class="st1" d="M1085.8,61.4c-0.9-1.3-1.6-2.7-2-4.2c-0.4-0.6-1.2-1-1.9-0.9c-1.1-0.2-2-1-3-1.4c-1.5,2.7-3.1,5.4-4.6,8.1
		c-0.6,1.1-1.1,1.3-2.4,0.7c-5.6-2.5-11.5-4.2-17.1-6.5c-1-0.4-2.1-0.9-3.1-1.3c-1.7-0.6-3-1.9-3.8-3.5c-1.5-2.9-3-5.7-6.4-6.8
		c-0.7-0.4-1.5-0.5-2.2-0.4c0.2,0.9,0.9,1.3,1.5,1.8s1.5,1,2.2,1.6s1.3,1.1,1,1.9c-0.2,0.6-1,0.2-1.6,0.2c-1.7,0-2.3,0.5-2.1,2.5
		c0.2,1.3-0.2,2.5,0.8,3.7c1.1,1.4,2.7,2.4,4.3,2.9c0.5,0.2,1,0.3,1.6,0.2c2.2-0.8,3.7,0.5,5.3,1.4c6.5,3.7,12.9,7.5,19.6,10.8
		c2.7,1.3,3.2,1.3,5.4-0.8C1080.4,68.4,1083.3,65,1085.8,61.4z"/>
	<path class="st10" d="M1118,200.2c-1.5,0.6-2.8,1.5-4.5,1.4c-2.2,2.2-4.6,4.1-7.3,5.7c-0.5,0.3-1.1,0.6-1,1.3s0.9,0.9,1.4,1.1
		c0.6,0.2,1.2,0.2,1.7,0.1c1.3-0.2,2.5-0.6,3.6-1.2c1.7-0.9,3.5-1.6,5.4-1.9c1.1-0.2,2.4-0.5,2.6-2
		C1120.2,203,1119.4,201.3,1118,200.2z"/>
	<path class="st10" d="M1085.1,202.9c-1.3,0.5-2.8,0.5-4.2,0c-0.4,0-0.8,0.1-1.3,0.2c-2.1,1-4.4,1.8-6.7,2.2
		c-0.8,0.2-1.5,0.5-2.3,0.8c-0.5,0.1-0.8,0.6-0.8,1.1c0,0.6,0.4,1,1,1.1c0.9,0.2,1.9,0.3,2.9,0.3c3.1-0.3,6.3-0.3,9.4,0
		c1.1,0.2,2.3,0.1,2.8-1.3C1086.6,205.8,1086.2,204.1,1085.1,202.9z"/>
	<path class="st1" d="M1104.1,40.8c-1.1-0.1-2.2-0.6-2.9-1.4c-0.7-1-0.6-2,0.5-2.3c1.9-0.5,2-1.8,2-3.3c-0.1-0.7-0.2-1.5-0.3-2.2
		c-0.2-1-0.4-1.7,1.2-1.9c1.3-0.2,1.7-1.7,1.9-2.9c0.3-1.2-0.1-2.5-1.1-3.3c-0.4-0.4-1-0.4-1.4,0c-0.1,0.1-0.1,0.1-0.1,0.2l-1.1,1.5
		c-0.1-0.5-0.1-1-0.1-1.5c0.1-1-0.6-1.9-1.5-2c0,0,0,0-0.1,0c-2-0.5-3.5-1.2-4.2-3.4c-0.5-1.6-2.2-1.4-3.6-1.2
		c-1,0.3-2.1,0.5-3.1,0.6c-0.7,0-0.6,0.4-0.6,0.9c-0.2,2.8,0,5.7,0.4,8.5c0.7,3.8,3.3,6,6.8,7.3c0.4,0.2,1.2,0,1.2,0.8
		s-0.7,0.8-1.3,1s-1.1,0.4-1.7,0.5c-0.1,1.8,0.1,3.6,0.7,5.3c1,2.3,2.3,3,4.7,2C1101.7,43.4,1103.1,42.3,1104.1,40.8z"/>
	<path class="st11" d="M1081.9,56.3l1.9,0.9c-0.5-3.9,2-6.7,3.6-9.8C1084.8,49.8,1082.9,52.9,1081.9,56.3z"/>
</g>
<g class="st0">
	<path class="st12" d="M1072.3,4.5c0,0-0.9,0-2.5,0"/>
	<path class="st13" d="M1065,4.8c-22.8,1.7-90.7,12.4-86,80.6"/>
	<path class="st12" d="M979.1,87.8c0.1,0.8,0.2,1.7,0.3,2.5c0,0-0.4-0.8-1.1-2.2"/>
	<path class="st14" d="M975.8,83.7C963.4,62.4,918.3,0,845.3,59.5"/>
	<path class="st12" d="M843.4,61.1c-0.6,0.5-1.3,1.1-1.9,1.6c0,0-0.4-0.8-1.2-2.2"/>
	<path class="st15" d="M837.7,56.4c-7.1-10.7-23.2-31.6-43.3-33.5"/>
	<path class="st12" d="M791.9,22.8c-0.8,0-1.7,0-2.5,0.1"/>
</g>
</svg>
